<svg width="171" height="28" viewBox="0 0 171 28" fill="none" xmlns="http://www.w3.org/2000/svg">
<path d="M34.7212 22.9579V7.68522H40.4485C41.6218 7.68522 42.6062 7.90397 43.4016 8.34147C44.2021 8.77897 44.8061 9.38053 45.2138 10.1462C45.6264 10.9068 45.8327 11.7719 45.8327 12.7413C45.8327 13.7207 45.6264 14.5908 45.2138 15.3514C44.8011 16.1121 44.1921 16.7111 43.3867 17.1486C42.5813 17.5812 41.5895 17.7974 40.4112 17.7974H36.6154V15.5229H40.0384C40.7244 15.5229 41.2862 15.4036 41.7237 15.165C42.1612 14.9263 42.4844 14.5982 42.6932 14.1806C42.907 13.763 43.0138 13.2832 43.0138 12.7413C43.0138 12.1994 42.907 11.7222 42.6932 11.3095C42.4844 10.8969 42.1587 10.5762 41.7163 10.3475C41.2788 10.1138 40.7145 9.99701 40.0234 9.99701H37.4879V22.9579H34.7212ZM53.0235 23.1817C51.8751 23.1817 50.8833 22.943 50.048 22.4658C49.2178 21.9835 48.5789 21.3024 48.1315 20.4224C47.684 19.5375 47.4603 18.4959 47.4603 17.2978C47.4603 16.1195 47.684 15.0854 48.1315 14.1955C48.5839 13.3006 49.2153 12.6046 50.0257 12.1074C50.836 11.6053 51.7881 11.3543 52.8818 11.3543C53.5878 11.3543 54.254 11.4686 54.8804 11.6973C55.5118 11.921 56.0686 12.269 56.5509 12.7413C57.0381 13.2136 57.4209 13.8152 57.6993 14.546C57.9777 15.2719 58.1169 16.1369 58.1169 17.1412V17.969H48.7281V16.1494H55.5292C55.5242 15.6323 55.4124 15.1724 55.1936 14.7697C54.9749 14.3621 54.6691 14.0414 54.2764 13.8077C53.8886 13.5741 53.4362 13.4572 52.9191 13.4572C52.3673 13.4572 51.8825 13.5915 51.4649 13.8599C51.0473 14.1234 50.7217 14.4714 50.488 14.904C50.2593 15.3315 50.1425 15.8013 50.1375 16.3134V17.9018C50.1375 18.568 50.2593 19.1398 50.5029 19.617C50.7465 20.0893 51.0871 20.4523 51.5246 20.7058C51.9621 20.9544 52.4742 21.0787 53.0608 21.0787C53.4536 21.0787 53.809 21.024 54.1272 20.9146C54.4454 20.8003 54.7213 20.6337 54.955 20.415C55.1887 20.1962 55.3651 19.9253 55.4845 19.6021L58.0051 19.8855C57.846 20.5517 57.5427 21.1334 57.0953 21.6305C56.6528 22.1227 56.086 22.5055 55.395 22.779C54.7039 23.0474 53.9134 23.1817 53.0235 23.1817ZM66.1206 11.5034V13.5915H59.5357V11.5034H66.1206ZM61.1614 8.75908H63.861V19.5126C63.861 19.8756 63.9157 20.154 64.025 20.3479C64.1394 20.5368 64.2885 20.666 64.4725 20.7356C64.6564 20.8052 64.8603 20.84 65.084 20.84C65.253 20.84 65.4071 20.8276 65.5463 20.8028C65.6905 20.7779 65.7999 20.7555 65.8745 20.7356L66.3294 22.8461C66.1852 22.8958 65.9789 22.9505 65.7104 23.0101C65.4469 23.0698 65.1238 23.1046 64.7409 23.1146C64.0648 23.1344 63.4558 23.0325 62.9139 22.8088C62.372 22.5801 61.9419 22.2271 61.6238 21.7499C61.3105 21.2726 61.1564 20.676 61.1614 19.9601V8.75908ZM73.7066 22.9579V7.68522H79.4339C80.6072 7.68522 81.5915 7.90397 82.387 8.34147C83.1874 8.77897 83.7915 9.38053 84.1991 10.1462C84.6118 10.9068 84.8181 11.7719 84.8181 12.7413C84.8181 13.7207 84.6118 14.5908 84.1991 15.3514C83.7865 16.1121 83.1775 16.7111 82.3721 17.1486C81.5667 17.5812 80.5748 17.7974 79.3966 17.7974H75.6008V15.5229H79.0237C79.7098 15.5229 80.2716 15.4036 80.7091 15.165C81.1466 14.9263 81.4697 14.5982 81.6785 14.1806C81.8923 13.763 81.9992 13.2832 81.9992 12.7413C81.9992 12.1994 81.8923 11.7222 81.6785 11.3095C81.4697 10.8969 81.1441 10.5762 80.7016 10.3475C80.2641 10.1138 79.6998 9.99701 79.0088 9.99701H76.4733V22.9579H73.7066ZM90.193 23.1891C89.4672 23.1891 88.8134 23.0599 88.2317 22.8013C87.655 22.5378 87.1976 22.1501 86.8596 21.638C86.5265 21.1259 86.3599 20.4945 86.3599 19.7438C86.3599 19.0975 86.4792 18.5631 86.7179 18.1405C86.9565 17.7179 87.2821 17.3798 87.6948 17.1263C88.1074 16.8727 88.5723 16.6813 89.0893 16.5521C89.6113 16.4178 90.1507 16.3209 90.7076 16.2612C91.3787 16.1916 91.9231 16.1295 92.3407 16.0748C92.7583 16.0151 93.0616 15.9256 93.2505 15.8063C93.4444 15.682 93.5414 15.4906 93.5414 15.2321V15.1874C93.5414 14.6256 93.3748 14.1905 93.0417 13.8823C92.7086 13.5741 92.2289 13.4199 91.6025 13.4199C90.9412 13.4199 90.4167 13.5641 90.0289 13.8525C89.6461 14.1408 89.3876 14.4814 89.2534 14.8741L86.7328 14.5162C86.9316 13.8202 87.2598 13.2385 87.7172 12.7712C88.1745 12.2989 88.7338 11.9459 89.3951 11.7122C90.0563 11.4736 90.7871 11.3543 91.5875 11.3543C92.1394 11.3543 92.6887 11.4189 93.2356 11.5481C93.7825 11.6774 94.2821 11.8912 94.7346 12.1895C95.187 12.4828 95.5499 12.883 95.8233 13.3901C96.1017 13.8972 96.2409 14.5311 96.2409 15.2918V22.9579H93.6458V21.3844H93.5563C93.3922 21.7026 93.161 22.0009 92.8627 22.2793C92.5694 22.5528 92.199 22.774 91.7516 22.943C91.3091 23.1071 90.7896 23.1891 90.193 23.1891ZM90.894 21.2055C91.4359 21.2055 91.9057 21.0986 92.3034 20.8848C92.7012 20.666 93.0069 20.3777 93.2207 20.0197C93.4395 19.6618 93.5488 19.2715 93.5488 18.8489V17.4991C93.4643 17.5687 93.3201 17.6334 93.1163 17.693C92.9174 17.7527 92.6937 17.8049 92.4451 17.8496C92.1966 17.8944 91.9505 17.9342 91.7069 17.969C91.4632 18.0038 91.252 18.0336 91.073 18.0584C90.6703 18.1131 90.3098 18.2026 89.9917 18.3269C89.6735 18.4512 89.4224 18.6252 89.2385 18.8489C89.0545 19.0677 88.9625 19.3511 88.9625 19.6991C88.9625 20.1962 89.144 20.5716 89.5069 20.8251C89.8699 21.0787 90.3322 21.2055 90.894 21.2055ZM98.9554 22.9579V11.5034H101.573V13.4125H101.692C101.901 12.7513 102.259 12.2417 102.766 11.8837C103.278 11.5208 103.862 11.3393 104.519 11.3393C104.668 11.3393 104.834 11.3468 105.018 11.3617C105.207 11.3717 105.364 11.3891 105.488 11.4139V13.8972C105.374 13.8574 105.192 13.8226 104.944 13.7928C104.7 13.758 104.464 13.7406 104.235 13.7406C103.743 13.7406 103.301 13.8475 102.908 14.0613C102.52 14.2701 102.214 14.5609 101.991 14.9338C101.767 15.3067 101.655 15.7367 101.655 16.2239V22.9579H98.9554ZM111.881 23.1817C110.733 23.1817 109.741 22.943 108.905 22.4658C108.075 21.9835 107.436 21.3024 106.989 20.4224C106.541 19.5375 106.318 18.4959 106.318 17.2978C106.318 16.1195 106.541 15.0854 106.989 14.1955C107.441 13.3006 108.073 12.6046 108.883 12.1074C109.693 11.6053 110.646 11.3543 111.739 11.3543C112.445 11.3543 113.111 11.4686 113.738 11.6973C114.369 11.921 114.926 12.269 115.408 12.7413C115.896 13.2136 116.278 13.8152 116.557 14.546C116.835 15.2719 116.974 16.1369 116.974 17.1412V17.969H107.585V16.1494H114.387C114.382 15.6323 114.27 15.1724 114.051 14.7697C113.832 14.3621 113.527 14.0414 113.134 13.8077C112.746 13.5741 112.294 13.4572 111.777 13.4572C111.225 13.4572 110.74 13.5915 110.322 13.8599C109.905 14.1234 109.579 14.4714 109.345 14.904C109.117 15.3315 109 15.8013 108.995 16.3134V17.9018C108.995 18.568 109.117 19.1398 109.36 19.617C109.604 20.0893 109.945 20.4523 110.382 20.7058C110.82 20.9544 111.332 21.0787 111.918 21.0787C112.311 21.0787 112.666 21.024 112.985 20.9146C113.303 20.8003 113.579 20.6337 113.812 20.415C114.046 20.1962 114.223 19.9253 114.342 19.6021L116.862 19.8855C116.703 20.5517 116.4 21.1334 115.953 21.6305C115.51 22.1227 114.943 22.5055 114.252 22.779C113.561 23.0474 112.771 23.1817 111.881 23.1817ZM121.958 16.2463V22.9579H119.258V11.5034H121.838V13.4498H121.973C122.236 12.8084 122.656 12.2989 123.233 11.921C123.815 11.5432 124.533 11.3543 125.388 11.3543C126.179 11.3543 126.867 11.5233 127.454 11.8614C128.045 12.1994 128.503 12.6891 128.826 13.3305C129.154 13.9718 129.316 14.7498 129.311 15.6646V22.9579H126.611V16.0822C126.611 15.3166 126.412 14.7175 126.015 14.285C125.622 13.8525 125.077 13.6362 124.381 13.6362C123.909 13.6362 123.489 13.7406 123.121 13.9494C122.758 14.1533 122.472 14.4491 122.263 14.8369C122.06 15.2246 121.958 15.6945 121.958 16.2463ZM137.775 11.5034V13.5915H131.19V11.5034H137.775ZM132.816 8.75908H135.515V19.5126C135.515 19.8756 135.57 20.154 135.679 20.3479C135.794 20.5368 135.943 20.666 136.127 20.7356C136.311 20.8052 136.515 20.84 136.738 20.84C136.907 20.84 137.061 20.8276 137.201 20.8028C137.345 20.7779 137.454 20.7555 137.529 20.7356L137.984 22.8461C137.839 22.8958 137.633 22.9505 137.365 23.0101C137.101 23.0698 136.778 23.1046 136.395 23.1146C135.719 23.1344 135.11 23.0325 134.568 22.8088C134.026 22.5801 133.596 22.2271 133.278 21.7499C132.965 21.2726 132.811 20.676 132.816 19.9601V8.75908ZM140.033 22.9579V11.5034H142.732V22.9579H140.033ZM141.39 9.87769C140.962 9.87769 140.594 9.736 140.286 9.45262C139.978 9.16427 139.824 8.81874 139.824 8.41604C139.824 8.00837 139.978 7.66285 140.286 7.37947C140.594 7.09111 140.962 6.94694 141.39 6.94694C141.822 6.94694 142.19 7.09111 142.494 7.37947C142.802 7.66285 142.956 8.00837 142.956 8.41604C142.956 8.81874 142.802 9.16427 142.494 9.45262C142.19 9.736 141.822 9.87769 141.39 9.87769ZM148.208 16.2463V22.9579H145.508V11.5034H148.088V13.4498H148.223C148.486 12.8084 148.906 12.2989 149.483 11.921C150.065 11.5432 150.783 11.3543 151.638 11.3543C152.429 11.3543 153.117 11.5233 153.704 11.8614C154.295 12.1994 154.753 12.6891 155.076 13.3305C155.404 13.9718 155.566 14.7498 155.561 15.6646V22.9579H152.861V16.0822C152.861 15.3166 152.662 14.7175 152.265 14.285C151.872 13.8525 151.327 13.6362 150.631 13.6362C150.159 13.6362 149.739 13.7406 149.371 13.9494C149.008 14.1533 148.722 14.4491 148.513 14.8369C148.31 15.2246 148.208 15.6945 148.208 16.2463ZM163.287 27.492C162.317 27.492 161.484 27.3603 160.788 27.0968C160.092 26.8383 159.533 26.4903 159.11 26.0528C158.688 25.6153 158.395 25.1305 158.23 24.5986L160.662 24.0094C160.771 24.2332 160.93 24.4544 161.139 24.6731C161.348 24.8969 161.629 25.0808 161.982 25.225C162.339 25.3741 162.789 25.4487 163.331 25.4487C164.097 25.4487 164.731 25.2623 165.233 24.8894C165.735 24.5215 165.986 23.915 165.986 23.0698V20.8997H165.852C165.713 21.1781 165.509 21.464 165.24 21.7573C164.977 22.0506 164.626 22.2967 164.189 22.4956C163.756 22.6945 163.212 22.7939 162.556 22.7939C161.676 22.7939 160.878 22.5876 160.162 22.1749C159.451 21.7573 158.884 21.1359 158.462 20.3106C158.044 19.4803 157.835 18.4413 157.835 17.1934C157.835 15.9356 158.044 14.8741 158.462 14.0091C158.884 13.1391 159.453 12.4803 160.169 12.0329C160.885 11.5805 161.683 11.3543 162.563 11.3543C163.234 11.3543 163.786 11.4686 164.219 11.6973C164.656 11.921 165.004 12.192 165.263 12.5101C165.521 12.8234 165.718 13.1192 165.852 13.3976H166.001V11.5034H168.663V23.1444C168.663 24.1238 168.43 24.9342 167.962 25.5755C167.495 26.2168 166.856 26.6966 166.046 27.0148C165.235 27.3329 164.316 27.492 163.287 27.492ZM163.309 20.676C163.881 20.676 164.368 20.5368 164.771 20.2584C165.173 19.98 165.479 19.5798 165.688 19.0577C165.897 18.5357 166.001 17.9093 166.001 17.1785C166.001 16.4576 165.897 15.8262 165.688 15.2843C165.484 14.7424 165.181 14.3223 164.778 14.024C164.38 13.7207 163.891 13.5691 163.309 13.5691C162.707 13.5691 162.205 13.7257 161.803 14.0389C161.4 14.3521 161.097 14.7822 160.893 15.329C160.689 15.8709 160.587 16.4874 160.587 17.1785C160.587 17.8795 160.689 18.4935 160.893 19.0204C161.102 19.5425 161.407 19.9501 161.81 20.2435C162.218 20.5318 162.717 20.676 163.309 20.676Z" fill="#021C3E"/>
<g opacity="0.8">
<path d="M18.858 16.3058C17.9967 14.0549 16.4742 12.4481 14.5709 11.7813C12.6676 11.1146 10.4752 11.4201 8.39762 12.6415C6.53013 13.7394 5.05263 15.43 4.44529 17.1637C4.15026 18.0059 4.18865 18.7396 4.55933 19.3444C4.9252 19.9415 5.55188 20.3196 6.30626 20.5838C7.10895 20.865 8.05628 21.0172 8.98708 21.1668C9.80044 21.2975 10.5687 21.421 11.1258 21.6161C11.6066 21.7846 12.2415 22.1452 12.9134 22.5269C14.4839 23.4192 16.2639 24.4304 17.675 23.9216C18.3459 23.6798 18.8335 23.1361 19.1243 22.3058C19.7317 20.5721 19.6322 18.3291 18.858 16.3058ZM22.3107 6.93086C22.0448 5.9668 21.4308 5.25225 20.626 4.97034C19.8212 4.68843 18.8955 4.86364 18.0862 5.45097C17.3426 5.99056 16.7428 6.83106 16.3972 7.8177C16.0516 8.80434 15.9957 9.83542 16.24 10.721C16.506 11.6851 17.12 12.3997 17.9248 12.6816C18.7295 12.9635 19.6552 12.7883 20.4646 12.2009C21.2081 11.6613 21.808 10.8208 22.1536 9.8342C22.4992 8.84756 22.5551 7.81644 22.3107 6.93086ZM15.7745 4.64114C15.5086 3.67708 14.8946 2.96254 14.0898 2.68063C13.285 2.39871 12.3593 2.57391 11.5499 3.16125C10.8064 3.70084 10.2066 4.54134 9.86093 5.52798C9.51531 6.51462 9.45948 7.5457 9.70379 8.43133C9.96972 9.39538 10.5837 10.11 11.3885 10.3919C12.1933 10.6738 13.119 10.4986 13.9284 9.91121C14.6719 9.37163 15.2717 8.53117 15.6174 7.54448C15.9629 6.55783 16.0188 5.52671 15.7745 4.64114ZM25.6034 14.8792C25.6394 14.0818 25.3585 13.3948 24.8124 12.9449C24.373 12.5828 23.7926 12.4148 23.1782 12.4718C22.3315 12.5503 21.4934 13.0313 20.8789 13.7915C20.3768 14.4126 20.0823 15.152 20.0498 15.8734C20.0138 16.6708 20.2947 17.3578 20.8408 17.8078C21.0298 17.9635 21.2448 18.0833 21.4774 18.1648C21.7857 18.2728 22.1249 18.3134 22.4751 18.2809C23.3218 18.2024 24.1599 17.7214 24.7743 16.9612L24.7744 16.9612C25.2764 16.34 25.5709 15.6007 25.6034 14.8792ZM8.38755 9.41558C8.38173 8.43812 8.027 7.53931 7.41442 6.94961C6.96985 6.52164 6.41145 6.29078 5.84218 6.29945C5.13465 6.31029 4.48642 6.6718 4.01694 7.31732C3.59219 7.90136 3.36091 8.6629 3.36565 9.4616L3.36564 9.46164C3.3715 10.4391 3.72619 11.3379 4.33877 11.9276C4.5922 12.1716 4.88256 12.3515 5.19085 12.4595C5.42342 12.541 5.66622 12.5815 5.91101 12.5778C6.61862 12.567 7.26682 12.2054 7.73629 11.5599C8.16094 10.9759 8.39222 10.2143 8.38755 9.41558Z" fill="#021C3E"/>
</g>
</svg>
