<svg width="333" height="50" viewBox="0 0 333 50" fill="none" xmlns="http://www.w3.org/2000/svg">
<path d="M63.6099 40.6963V11.6054H75.627C77.805 11.6054 79.6847 12.0315 81.2662 12.8838C82.8571 13.7266 84.0834 14.9056 84.9451 16.4207C85.8069 17.9264 86.2377 19.6783 86.2377 21.6764C86.2377 23.684 85.7974 25.4406 84.9167 26.9463C84.0455 28.4425 82.8002 29.6025 81.1809 30.4264C79.5616 31.2503 77.6393 31.6622 75.4139 31.6622H67.9991V26.1224H74.1071C75.1677 26.1224 76.0531 25.9378 76.7633 25.5684C77.483 25.1991 78.0275 24.683 78.3968 24.0202C78.7662 23.3478 78.9508 22.5666 78.9508 21.6764C78.9508 20.7768 78.7662 20.0003 78.3968 19.3469C78.0275 18.684 77.483 18.1726 76.7633 17.8128C76.0436 17.4529 75.1582 17.273 74.1071 17.273H70.6412V40.6963H63.6099ZM99.4728 41.1082C97.1906 41.1082 95.2209 40.6584 93.5637 39.7588C91.916 38.8497 90.6471 37.5571 89.7569 35.8809C88.8762 34.1953 88.4359 32.1925 88.4359 29.8724C88.4359 27.6186 88.881 25.6489 89.7711 23.9633C90.6613 22.2683 91.916 20.952 93.5353 20.0145C95.1547 19.0675 97.0628 18.594 99.2598 18.594C100.813 18.594 102.233 18.8355 103.521 19.3184C104.809 19.8014 105.922 20.5164 106.859 21.4633C107.797 22.4103 108.526 23.5798 109.047 24.9719C109.568 26.3544 109.828 27.9406 109.828 29.7304V31.4633H90.8649V27.4292H103.365C103.355 26.6906 103.18 26.0325 102.839 25.4548C102.498 24.8772 102.03 24.4273 101.433 24.1054C100.846 23.7739 100.169 23.6082 99.4018 23.6082C98.6253 23.6082 97.9293 23.7834 97.3137 24.1338C96.6982 24.4747 96.2105 24.9434 95.8507 25.54C95.4908 26.1272 95.3014 26.7948 95.2825 27.5429V31.648C95.2825 32.5381 95.4577 33.3194 95.8081 33.9917C96.1584 34.6546 96.6556 35.1707 97.2995 35.54C97.9435 35.9094 98.7105 36.094 99.6007 36.094C100.216 36.094 100.775 36.0088 101.277 35.8383C101.779 35.6679 102.21 35.4169 102.569 35.0855C102.929 34.7541 103.199 34.3469 103.379 33.8639L109.757 34.0486C109.492 35.4785 108.909 36.7238 108.01 37.7844C107.12 38.8355 105.95 39.6546 104.501 40.2417C103.052 40.8194 101.376 41.1082 99.4728 41.1082ZM125.691 18.8781V23.9917H111.927V18.8781H125.691ZM114.81 13.6508H121.756V33.8355C121.756 34.2616 121.823 34.6073 121.955 34.8724C122.097 35.1281 122.301 35.3128 122.566 35.4264C122.831 35.5306 123.148 35.5827 123.518 35.5827C123.783 35.5827 124.062 35.559 124.356 35.5116C124.659 35.4548 124.886 35.4075 125.037 35.3696L126.089 40.3838C125.757 40.4785 125.288 40.5969 124.682 40.7389C124.086 40.8809 123.371 40.9709 122.537 41.0088C120.909 41.0845 119.512 40.8952 118.347 40.4406C117.192 39.9766 116.306 39.2569 115.691 38.2815C115.085 37.3061 114.791 36.0798 114.81 34.6025V13.6508ZM137.829 40.6963V11.6054H149.846C152.024 11.6054 153.903 12.0315 155.485 12.8838C157.076 13.7266 158.302 14.9056 159.164 16.4207C160.026 17.9264 160.456 19.6783 160.456 21.6764C160.456 23.684 160.016 25.4406 159.135 26.9463C158.264 28.4425 157.019 29.6025 155.4 30.4264C153.78 31.2503 151.858 31.6622 149.633 31.6622H142.218V26.1224H148.326C149.386 26.1224 150.272 25.9378 150.982 25.5684C151.702 25.1991 152.246 24.683 152.616 24.0202C152.985 23.3478 153.17 22.5666 153.17 21.6764C153.17 20.7768 152.985 20.0003 152.616 19.3469C152.246 18.684 151.702 18.1726 150.982 17.8128C150.262 17.4529 149.377 17.273 148.326 17.273H144.86V40.6963H137.829ZM169.292 41.0656C167.9 41.0656 166.664 40.8336 165.584 40.3696C164.514 39.8961 163.667 39.1859 163.042 38.2389C162.426 37.2825 162.118 36.0845 162.118 34.6452C162.118 33.433 162.331 32.4103 162.758 31.577C163.184 30.7436 163.771 30.0666 164.519 29.5457C165.267 29.0249 166.129 28.6319 167.104 28.3667C168.08 28.0921 169.121 27.9075 170.229 27.8128C171.47 27.6991 172.469 27.5808 173.226 27.4577C173.984 27.3251 174.533 27.1404 174.874 26.9037C175.224 26.6575 175.4 26.3118 175.4 25.8667V25.7957C175.4 25.0666 175.149 24.5031 174.647 24.1054C174.145 23.7077 173.468 23.5088 172.616 23.5088C171.697 23.5088 170.958 23.7077 170.4 24.1054C169.841 24.5031 169.486 25.0523 169.334 25.7531L162.928 25.5258C163.117 24.2001 163.605 23.0164 164.391 21.9747C165.187 20.9236 166.276 20.0997 167.658 19.5031C169.05 18.897 170.722 18.594 172.672 18.594C174.064 18.594 175.348 18.7597 176.522 19.0912C177.696 19.4131 178.719 19.8866 179.59 20.5116C180.461 21.1272 181.134 21.8847 181.607 22.7844C182.09 23.684 182.331 24.7114 182.331 25.8667V40.6963H175.797V37.6565H175.627C175.239 38.3952 174.742 39.0202 174.135 39.5315C173.539 40.0429 172.833 40.4264 172.019 40.6821C171.214 40.9378 170.305 41.0656 169.292 41.0656ZM171.437 36.5202C172.185 36.5202 172.857 36.3686 173.454 36.0656C174.06 35.7626 174.543 35.3459 174.903 34.8156C175.262 34.2758 175.442 33.6508 175.442 32.9406V30.8667C175.243 30.9709 175.002 31.0656 174.718 31.1508C174.443 31.2361 174.14 31.3166 173.809 31.3923C173.477 31.4681 173.136 31.5344 172.786 31.5912C172.436 31.648 172.099 31.7001 171.778 31.7474C171.124 31.8516 170.565 32.0126 170.101 32.2304C169.647 32.4482 169.296 32.7323 169.05 33.0827C168.814 33.4236 168.695 33.8308 168.695 34.3042C168.695 35.0239 168.951 35.5732 169.462 35.952C169.983 36.3308 170.641 36.5202 171.437 36.5202ZM186.579 40.6963V18.8781H193.326V22.8554H193.553C193.951 21.416 194.599 20.3459 195.499 19.6452C196.399 18.9349 197.445 18.5798 198.638 18.5798C198.96 18.5798 199.292 18.6035 199.633 18.6508C199.974 18.6887 200.291 18.7503 200.584 18.8355V24.8724C200.253 24.7588 199.817 24.6688 199.278 24.6025C198.747 24.5363 198.274 24.5031 197.857 24.5031C197.033 24.5031 196.29 24.6878 195.627 25.0571C194.974 25.4169 194.457 25.9236 194.079 26.577C193.709 27.2209 193.525 27.9785 193.525 28.8497V40.6963H186.579ZM212.481 41.1082C210.198 41.1082 208.229 40.6584 206.572 39.7588C204.924 38.8497 203.655 37.5571 202.765 35.8809C201.884 34.1953 201.444 32.1925 201.444 29.8724C201.444 27.6186 201.889 25.6489 202.779 23.9633C203.669 22.2683 204.924 20.952 206.543 20.0145C208.162 19.0675 210.071 18.594 212.268 18.594C213.821 18.594 215.241 18.8355 216.529 19.3184C217.817 19.8014 218.93 20.5164 219.867 21.4633C220.805 22.4103 221.534 23.5798 222.055 24.9719C222.575 26.3544 222.836 27.9406 222.836 29.7304V31.4633H203.873V27.4292H216.373C216.363 26.6906 216.188 26.0325 215.847 25.4548C215.506 24.8772 215.037 24.4273 214.441 24.1054C213.854 23.7739 213.177 23.6082 212.41 23.6082C211.633 23.6082 210.937 23.7834 210.322 24.1338C209.706 24.4747 209.218 24.9434 208.858 25.54C208.499 26.1272 208.309 26.7948 208.29 27.5429V31.648C208.29 32.5381 208.465 33.3194 208.816 33.9917C209.166 34.6546 209.663 35.1707 210.307 35.54C210.951 35.9094 211.718 36.094 212.608 36.094C213.224 36.094 213.783 36.0088 214.285 35.8383C214.787 35.6679 215.217 35.4169 215.577 35.0855C215.937 34.7541 216.207 34.3469 216.387 33.8639L222.765 34.0486C222.5 35.4785 221.917 36.7238 221.018 37.7844C220.127 38.8355 218.958 39.6546 217.509 40.2417C216.06 40.8194 214.384 41.1082 212.481 41.1082ZM233.329 28.2531V40.6963H226.383V18.8781H232.988V22.8838H233.23C233.713 21.5486 234.537 20.5022 235.702 19.7446C236.866 18.9775 238.254 18.594 239.863 18.594C241.398 18.594 242.728 18.9397 243.855 19.6309C244.991 20.3128 245.872 21.2692 246.497 22.5003C247.131 23.7219 247.444 25.1518 247.434 26.79V40.6963H240.488V28.1537C240.498 26.9416 240.19 25.9946 239.565 25.3128C238.95 24.6309 238.093 24.29 236.994 24.29C236.265 24.29 235.621 24.451 235.062 24.773C234.513 25.0855 234.087 25.5353 233.784 26.1224C233.49 26.7095 233.339 27.4198 233.329 28.2531ZM264.05 18.8781V23.9917H250.286V18.8781H264.05ZM253.17 13.6508H260.116V33.8355C260.116 34.2616 260.182 34.6073 260.314 34.8724C260.456 35.1281 260.66 35.3128 260.925 35.4264C261.19 35.5306 261.508 35.5827 261.877 35.5827C262.142 35.5827 262.421 35.559 262.715 35.5116C263.018 35.4548 263.245 35.4075 263.397 35.3696L264.448 40.3838C264.117 40.4785 263.648 40.5969 263.042 40.7389C262.445 40.8809 261.73 40.9709 260.897 41.0088C259.268 41.0845 257.871 40.8952 256.706 40.4406C255.551 39.9766 254.666 39.2569 254.05 38.2815C253.444 37.3061 253.151 36.0798 253.17 34.6025V13.6508ZM267.594 40.6963V18.8781H274.54V40.6963H267.594ZM271.074 16.3355C270.099 16.3355 269.261 16.0135 268.56 15.3696C267.859 14.7162 267.509 13.9302 267.509 13.0116C267.509 12.1025 267.859 11.326 268.56 10.6821C269.261 10.0287 270.099 9.70197 271.074 9.70197C272.059 9.70197 272.897 10.0287 273.589 10.6821C274.289 11.326 274.64 12.1025 274.64 13.0116C274.64 13.9302 274.289 14.7162 273.589 15.3696C272.897 16.0135 272.059 16.3355 271.074 16.3355ZM285.907 28.2531V40.6963H278.961V18.8781H285.567V22.8838H285.808C286.291 21.5486 287.115 20.5022 288.28 19.7446C289.444 18.9775 290.832 18.594 292.442 18.594C293.976 18.594 295.306 18.9397 296.433 19.6309C297.569 20.3128 298.45 21.2692 299.075 22.5003C299.71 23.7219 300.022 25.1518 300.013 26.79V40.6963H293.067V28.1537C293.076 26.9416 292.768 25.9946 292.143 25.3128C291.528 24.6309 290.671 24.29 289.572 24.29C288.843 24.29 288.199 24.451 287.64 24.773C287.091 25.0855 286.665 25.5353 286.362 26.1224C286.068 26.7095 285.917 27.4198 285.907 28.2531ZM314.483 49.3327C312.41 49.3327 310.634 49.0438 309.157 48.4662C307.68 47.8885 306.519 47.0978 305.677 46.094C304.834 45.0902 304.327 43.9539 304.157 42.6849L310.733 42.3156C310.857 42.7607 311.084 43.1489 311.415 43.4804C311.756 43.8118 312.197 44.0675 312.736 44.2474C313.286 44.4273 313.93 44.5173 314.668 44.5173C315.833 44.5173 316.794 44.2332 317.552 43.665C318.319 43.1063 318.702 42.1262 318.702 40.7247V36.8895H318.461C318.186 37.5618 317.769 38.1631 317.211 38.6934C316.652 39.2238 315.956 39.6404 315.123 39.9434C314.299 40.2465 313.352 40.398 312.282 40.398C310.691 40.398 309.233 40.0287 307.907 39.29C306.59 38.5419 305.535 37.3866 304.739 35.8241C303.953 34.2522 303.56 32.2304 303.56 29.7588C303.56 27.2114 303.967 25.1139 304.782 23.4662C305.596 21.809 306.662 20.5827 307.978 19.7872C309.304 18.9917 310.729 18.594 312.253 18.594C313.399 18.594 314.379 18.7929 315.194 19.1906C316.018 19.5789 316.695 20.0808 317.225 20.6963C317.755 21.3118 318.158 21.951 318.432 22.6139H318.631V18.8781H325.549V40.7815C325.549 42.6281 325.085 44.1859 324.157 45.4548C323.229 46.7238 321.931 47.6849 320.265 48.3383C318.598 49.0012 316.671 49.3327 314.483 49.3327ZM314.697 35.3412C315.539 35.3412 316.259 35.1186 316.856 34.6736C317.452 34.2285 317.912 33.5893 318.233 32.7559C318.555 31.9226 318.716 30.9236 318.716 29.7588C318.716 28.5751 318.555 27.5571 318.233 26.7048C317.921 25.8431 317.462 25.1802 316.856 24.7162C316.259 24.2522 315.539 24.0202 314.697 24.0202C313.835 24.0202 313.106 24.2569 312.509 24.7304C311.912 25.2039 311.458 25.8715 311.145 26.7332C310.842 27.5855 310.691 28.594 310.691 29.7588C310.691 30.9236 310.847 31.9226 311.16 32.7559C311.472 33.5893 311.922 34.2285 312.509 34.6736C313.106 35.1186 313.835 35.3412 314.697 35.3412Z" fill="#71C852"/>
<path d="M32.9753 28.809C31.4951 24.8226 28.8524 21.987 25.5338 20.8244C22.2151 19.6619 18.3806 20.2285 14.7365 22.4199C11.4609 24.3895 8.86024 27.407 7.77971 30.4915C7.25482 31.9899 7.31379 33.292 7.95486 34.3616C8.5876 35.4173 9.67854 36.0817 10.9939 36.5423C12.3935 37.0326 14.0472 37.2924 15.6721 37.5476C17.092 37.7706 18.4332 37.9813 19.4045 38.3216C20.2429 38.6153 21.3483 39.2484 22.5183 39.9187C25.2528 41.4853 28.3522 43.2607 30.8238 42.3419C31.9987 41.9051 32.8568 40.9346 33.3743 39.4574C34.4549 36.3729 34.3057 32.3922 32.9753 28.809ZM39.1128 12.1281C38.6588 10.4196 37.5936 9.15789 36.1905 8.66636C34.7872 8.1748 33.1676 8.4961 31.7467 9.5477C30.4415 10.5138 29.3839 12.0126 28.769 13.7679C28.1541 15.5232 28.0452 17.3542 28.4623 18.9237C28.9163 20.6321 29.9815 21.8939 31.3846 22.3854C32.7878 22.877 34.4074 22.5557 35.8283 21.5041C37.1336 20.538 38.1911 19.0392 38.806 17.2839C39.4209 15.5285 39.5299 13.6975 39.1128 12.1281ZM27.7161 8.13567C27.2621 6.4272 26.197 5.16553 24.7938 4.67397C23.3906 4.18241 21.7709 4.50369 20.3501 5.55532C19.0448 6.52144 17.9873 8.02017 17.3724 9.77551C16.7575 11.5308 16.6485 13.3619 17.0656 14.9313C17.5196 16.6398 18.5847 17.9016 19.9879 18.3931C21.3911 18.8847 23.0107 18.5634 24.4316 17.5117C25.7369 16.5456 26.7944 15.0469 27.4093 13.2915C28.0242 11.5361 28.1332 9.70505 27.7161 8.13567ZM44.7787 26.2017C44.8505 24.7857 44.3671 23.5692 43.4179 22.7765C42.6539 22.1387 41.6416 21.8468 40.5673 21.9548C39.0868 22.1036 37.6169 22.9668 36.5348 24.323C35.6504 25.4313 35.1276 26.7471 35.0627 28.0282C34.991 29.4442 35.4743 30.6606 36.4237 31.4534C36.7522 31.7277 37.1265 31.938 37.5321 32.08C38.0696 32.2683 38.6619 32.3366 39.2743 32.2751C40.7548 32.1263 42.2246 31.2632 43.3068 29.907L43.3068 29.9069C44.1911 28.7986 44.7139 27.4828 44.7787 26.2017ZM14.7546 16.6932C14.7553 14.958 14.1453 13.3664 13.0814 12.3263C12.3092 11.5715 11.336 11.1679 10.3411 11.1895C9.10457 11.2166 7.96778 11.8656 7.14024 13.0167C6.39151 14.0582 5.97892 15.4127 5.97836 16.8305L5.97833 16.8306C5.97775 18.5657 6.58761 20.1574 7.65156 21.1974C8.09173 21.6277 8.59715 21.9439 9.13468 22.1322C9.5402 22.2743 9.96403 22.3435 10.3918 22.3342C11.6285 22.3072 12.7652 21.6582 13.5928 20.5071C14.3413 19.4656 14.7539 18.1111 14.7546 16.6932Z" fill="#71C852"/>
</svg>
