<svg width="51" height="51" viewBox="0 0 51 51" fill="none" xmlns="http://www.w3.org/2000/svg">
<rect width="51" height="51" rx="5" fill="url(#paint0_linear_399_4)"/>
<path fill-rule="evenodd" clip-rule="evenodd" d="M13.7062 29.0054C13.7064 28.8481 13.679 28.692 13.6255 28.5441L15.0441 27.1548H18.4935V28.2875C18.4935 28.3016 18.4935 28.3151 18.494 28.3288L15.8 29.1969C15.665 29.2401 15.5514 29.333 15.4823 29.4567L13.6241 32.7637C13.5867 32.7606 13.5492 32.759 13.5116 32.7589C13.2076 32.7589 12.9124 32.8614 12.6737 33.0497C12.4349 33.238 12.2666 33.5013 12.1959 33.797C12.1251 34.0927 12.156 34.4036 12.2836 34.6796C12.4111 34.9556 12.628 35.1806 12.8991 35.3182C13.1702 35.4559 13.4798 35.4982 13.7779 35.4384C14.076 35.3786 14.3453 35.2201 14.5422 34.9884C14.7392 34.7568 14.8525 34.4656 14.8637 34.1618C14.8749 33.8579 14.7834 33.5591 14.604 33.3136L16.3541 30.1965L18.915 29.3712C19.0657 29.5374 19.2495 29.6702 19.4545 29.7612C19.6596 29.8521 19.8814 29.8992 20.1057 29.8993H23.7006V25.1428C23.7006 24.815 23.7681 24.4907 23.8988 24.1902C24.0295 23.8896 24.2207 23.6191 24.4605 23.3956C24.2669 23.1003 24.1569 22.7581 24.142 22.4053C24.1272 22.0525 24.208 21.7022 24.376 21.3916C24.544 21.081 24.7929 20.8217 25.0963 20.641C25.3998 20.4604 25.7464 20.3652 26.0995 20.3656C26.4526 20.3659 26.7991 20.4618 27.1021 20.643C27.4052 20.8242 27.6536 21.0841 27.821 21.395C27.9884 21.7059 28.0685 22.0564 28.053 22.4091C28.0374 22.7619 27.9267 23.1039 27.7325 23.3989C27.9713 23.6222 28.1617 23.8923 28.2918 24.1922C28.4219 24.4922 28.4891 24.8157 28.489 25.1426V29.4871C28.5367 29.4843 28.5848 29.4829 28.6333 29.4828C29.114 29.4824 29.5836 29.6275 29.9802 29.8992H32.0895C32.3194 29.899 32.5465 29.8495 32.7557 29.7542C32.9648 29.6589 33.1511 29.5198 33.302 29.3465L35.9393 30.1963L37.6894 33.3135C37.5101 33.559 37.4187 33.8578 37.4299 34.1616C37.4412 34.4655 37.5544 34.7566 37.7515 34.9882C37.9485 35.2198 38.2178 35.3782 38.5159 35.438C38.814 35.4978 39.1235 35.4554 39.3946 35.3177C39.6657 35.18 39.8825 34.955 40.01 34.679C40.1375 34.403 40.1684 34.0921 40.0975 33.7964C40.0267 33.5007 39.8583 33.2375 39.6196 33.0492C39.3808 32.861 39.0856 32.7586 38.7816 32.7587C38.7436 32.7587 38.706 32.7604 38.6691 32.7634L36.8112 29.4562C36.742 29.3325 36.6284 29.2396 36.4934 29.1964L33.7015 28.2964V27.1548H37.2488L38.6672 28.5443C38.562 28.8347 38.5594 29.1523 38.6597 29.4443C38.7601 29.7363 38.9573 29.9852 39.2187 30.1496C39.4801 30.314 39.7899 30.384 40.0966 30.3479C40.4033 30.3118 40.6884 30.1718 40.9045 29.9513C41.1206 29.7307 41.2547 29.4428 41.2845 29.1355C41.3144 28.8281 41.2381 28.5198 41.0684 28.2618C40.8987 28.0038 40.6459 27.8117 40.3518 27.7173C40.0578 27.623 39.7404 27.6321 39.4522 27.7431L37.8983 26.221C37.8456 26.1609 37.7806 26.1127 37.7078 26.0797C37.6349 26.0467 37.5558 26.0297 37.4758 26.0298H33.7013V23.974H38.7089C38.8373 24.2549 39.0579 24.4834 39.3341 24.6215C39.6103 24.7597 39.9255 24.7992 40.2272 24.7335C40.529 24.6678 40.7992 24.5009 40.9929 24.2604C41.1867 24.0199 41.2923 23.7204 41.2923 23.4115C41.2923 23.1027 41.1867 22.8032 40.9929 22.5627C40.7992 22.3222 40.529 22.1553 40.2272 22.0896C39.9255 22.0239 39.6103 22.0634 39.3341 22.2015C39.0579 22.3397 38.8373 22.5682 38.7089 22.849H33.7013V20.7934H37.4763C37.5563 20.7935 37.6354 20.7765 37.7082 20.7436C37.7811 20.7106 37.8461 20.6624 37.8988 20.6023L39.4527 19.0801C39.7407 19.1912 40.0581 19.2003 40.352 19.1059C40.6459 19.0116 40.8987 18.8196 41.0683 18.5617C41.2379 18.3038 41.3142 17.9957 41.2844 17.6884C41.2547 17.3812 41.1207 17.0934 40.9047 16.8729C40.6887 16.6524 40.4038 16.5124 40.0972 16.4762C39.7907 16.4401 39.481 16.5099 39.2197 16.6742C38.9583 16.8384 38.761 17.0871 38.6606 17.379C38.5602 17.6709 38.5627 17.9883 38.6677 18.2786L37.2488 19.6684H33.7013V18.661L36.515 17.62C36.641 17.574 36.7463 17.4843 36.8117 17.3673L38.6691 14.0593C38.7063 14.0624 38.7438 14.064 38.7816 14.064C39.0857 14.064 39.3808 13.9616 39.6196 13.7733C39.8583 13.585 40.0266 13.3217 40.0974 13.026C40.1682 12.7303 40.1373 12.4194 40.0097 12.1434C39.8821 11.8674 39.6653 11.6424 39.3941 11.5048C39.123 11.3671 38.8135 11.3248 38.5154 11.3846C38.2172 11.4444 37.948 11.6029 37.751 11.8345C37.554 12.0662 37.4408 12.3574 37.4296 12.6612C37.4183 12.9651 37.5098 13.2639 37.6892 13.5094L35.933 16.6373L33.3851 17.5799C33.2355 17.3768 33.0403 17.2116 32.8152 17.0976C32.5902 16.9837 32.3415 16.9241 32.0893 16.9237H31.289V14.1917C31.289 12.8147 30.742 11.4942 29.7684 10.5206C28.7947 9.54698 27.4742 9 26.0973 9C24.7204 9 23.3999 9.54698 22.4262 10.5206C21.4526 11.4942 20.9056 12.8147 20.9056 14.1917V16.9237H20.1054C19.8591 16.924 19.6162 16.9808 19.3953 17.0896C19.1744 17.1984 18.9814 17.3564 18.8311 17.5515L16.3599 16.6374L14.6037 13.5094C14.7831 13.2639 14.8746 12.9651 14.8634 12.6612C14.8522 12.3574 14.739 12.0662 14.542 11.8346C14.345 11.6029 14.0757 11.4444 13.7776 11.3846C13.4795 11.3248 13.1699 11.3671 12.8988 11.5047C12.6277 11.6424 12.4109 11.8674 12.2833 12.1434C12.1557 12.4193 12.1248 12.7303 12.1956 13.026C12.2663 13.3217 12.4346 13.5849 12.6733 13.7733C12.912 13.9616 13.2072 14.064 13.5113 14.064C13.5493 14.064 13.5868 14.0625 13.6238 14.0593L15.4813 17.3673C15.5466 17.4844 15.6519 17.5741 15.7779 17.62L18.4933 18.6247V19.6688H15.0441L13.6255 18.2789C13.7305 17.9886 13.733 17.6711 13.6326 17.3792C13.5321 17.0873 13.3349 16.8386 13.0735 16.6743C12.8121 16.5101 12.5024 16.4402 12.1959 16.4764C11.8893 16.5126 11.6043 16.6525 11.3883 16.8731C11.1724 17.0936 11.0383 17.3814 11.0086 17.6887C10.9788 17.9959 11.0551 18.3041 11.2248 18.562C11.3944 18.8199 11.6472 19.0119 11.9411 19.1062C12.2351 19.2006 12.5524 19.1914 12.8404 19.0804L14.3943 20.6025C14.4471 20.6627 14.512 20.7109 14.5849 20.7438C14.6578 20.7768 14.7369 20.7938 14.8168 20.7937H18.4936V22.8493H13.584C13.4556 22.5685 13.235 22.34 12.9588 22.2018C12.6826 22.0637 12.3675 22.0242 12.0657 22.0899C11.764 22.1556 11.4938 22.3226 11.3001 22.563C11.1063 22.8035 11.0007 23.103 11.0007 23.4118C11.0007 23.7206 11.1063 24.0201 11.3001 24.2606C11.4938 24.5011 11.764 24.668 12.0657 24.7337C12.3675 24.7994 12.6826 24.7599 12.9588 24.6218C13.235 24.4836 13.4556 24.2552 13.584 23.9743H18.4933V26.0298H14.8166C14.7366 26.0297 14.6575 26.0467 14.5846 26.0797C14.5118 26.1127 14.4468 26.1609 14.3941 26.221L12.8401 27.7431C12.5706 27.6392 12.2749 27.6242 11.9963 27.7003C11.7176 27.7765 11.4707 27.9399 11.2915 28.1665C11.1124 28.3931 11.0105 28.6712 11.0008 28.9599C10.991 29.2486 11.0739 29.5328 11.2374 29.771C11.4008 30.0092 11.6362 30.1889 11.909 30.2837C12.1819 30.3785 12.478 30.3835 12.7539 30.2979C13.0298 30.2123 13.2711 30.0407 13.4424 29.8081C13.6138 29.5756 13.7062 29.2943 13.7062 29.0054ZM33.8655 41.5872H24.5363C24.0592 39.2083 22.3527 37.7634 20.3555 33.2977C19.5724 31.547 21.375 30.5245 22.5539 32.0285L24.825 34.9269V25.1428C24.8225 24.9745 24.8535 24.8074 24.9161 24.6513C24.9788 24.4951 25.0719 24.3529 25.19 24.2331C25.3081 24.1132 25.4488 24.018 25.604 23.953C25.7593 23.8881 25.9259 23.8546 26.0941 23.8546C26.2624 23.8546 26.429 23.8881 26.5842 23.953C26.7394 24.018 26.8802 24.1132 26.9983 24.2331C27.1164 24.3529 27.2095 24.4951 27.2721 24.6513C27.3348 24.8074 27.3658 24.9745 27.3633 25.1428V31.8772C27.3682 31.5439 27.5041 31.2259 27.7416 30.9919C27.9791 30.758 28.299 30.6268 28.6324 30.6268C28.9658 30.6268 29.2857 30.758 29.5232 30.9919C29.7607 31.2259 29.8966 31.5439 29.9015 31.8772V33.0416C29.899 32.8733 29.93 32.7063 29.9927 32.5501C30.0553 32.3939 30.1484 32.2518 30.2665 32.1319C30.3846 32.012 30.5254 31.9168 30.6806 31.8519C30.8358 31.7869 31.0024 31.7534 31.1707 31.7534C31.339 31.7534 31.5056 31.7869 31.6608 31.8519C31.816 31.9168 31.9568 32.012 32.0749 32.1319C32.193 32.2518 32.286 32.3939 32.3487 32.5501C32.4114 32.7063 32.4423 32.8733 32.4398 33.0416V34.1703C32.4373 34.002 32.4683 33.8349 32.531 33.6788C32.5936 33.5226 32.6867 33.3804 32.8048 33.2606C32.9229 33.1407 33.0637 33.0455 33.2189 32.9805C33.3741 32.9155 33.5407 32.8821 33.709 32.8821C33.8772 32.8821 34.0438 32.9155 34.1991 32.9805C34.3543 33.0455 34.495 33.1407 34.6131 33.2606C34.7312 33.3804 34.8243 33.5226 34.887 33.6788C34.9496 33.8349 34.9806 34.002 34.9781 34.1703V35.8935C34.9781 37.2426 34.8225 39.7794 33.8644 41.5872H33.8655ZM24.6239 42.7122V43.7344H33.5231V42.7122H24.6239ZM23.3732 16.9237V14.1917C23.3769 13.4716 23.6655 12.7823 24.176 12.2744C24.6864 11.7665 25.3772 11.4814 26.0973 11.4814C26.8174 11.4814 27.5082 11.7665 28.0187 12.2744C28.5291 12.7823 28.8177 13.4716 28.8214 14.1917V16.9237H23.3732Z" fill="white"/>
<defs>
<linearGradient id="paint0_linear_399_4" x1="51" y1="41" x2="0" y2="0" gradientUnits="userSpaceOnUse">
<stop offset="1" stop-color="#131F38"/>
</linearGradient>
</defs>
</svg>
