<svg width="51" height="51" viewBox="0 0 51 51" fill="none" xmlns="http://www.w3.org/2000/svg">
<rect width="51" height="51" rx="5" fill="url(#paint0_linear_171_2)"/>
<g clip-path="url(#clip0_171_2)">
<path d="M34.5224 39.0333H16.4779C13.9905 39.0333 11.9668 37.0097 11.9668 34.5222V16.4778C11.9668 13.9904 13.9905 11.9667 16.4779 11.9667H34.5224C37.0098 11.9667 39.0335 13.9904 39.0335 16.4778V34.5222C39.0335 37.0097 37.0098 39.0333 34.5224 39.0333ZM16.4779 13.2556C14.7012 13.2556 13.2557 14.7011 13.2557 16.4778V34.5222C13.2557 36.299 14.7012 37.7445 16.4779 37.7445H34.5224C36.2991 37.7445 37.7446 36.299 37.7446 34.5222V16.4778C37.7446 14.7011 36.2991 13.2556 34.5224 13.2556H16.4779Z" fill="white"/>
<path d="M27.727 31.3129L27.7196 31.3128C27.5925 31.3113 27.4686 31.2723 27.3636 31.2006C27.2586 31.1289 27.1772 31.0277 27.1295 30.9098L23.5125 21.9566L21.7701 25.7423C21.7185 25.8542 21.636 25.949 21.5323 26.0155C21.4285 26.082 21.3079 26.1173 21.1846 26.1173H18.0526C17.6967 26.1173 17.4082 25.8287 17.4082 25.4728C17.4082 25.1169 17.6967 24.8284 18.0526 24.8284H20.7718L22.9656 20.062C23.0182 19.9477 23.1031 19.8513 23.2099 19.7847C23.3166 19.7181 23.4405 19.6842 23.5663 19.6872C23.6921 19.6902 23.8143 19.7299 23.9177 19.8015C24.0212 19.8731 24.1014 19.9734 24.1486 20.0901L27.7463 28.9954L29.3625 25.2448C29.4123 25.1292 29.4949 25.0307 29.6001 24.9615C29.7053 24.8923 29.8284 24.8554 29.9543 24.8555H32.947C33.3029 24.8555 33.5915 25.144 33.5915 25.4999C33.5915 25.8558 33.3029 26.1444 32.947 26.1444H30.3782L28.3188 30.9234C28.269 31.039 28.1864 31.1375 28.0812 31.2067C27.9761 31.2759 27.8529 31.3128 27.727 31.3129Z" fill="white"/>
</g>
<defs>
<linearGradient id="paint0_linear_171_2" x1="51" y1="41" x2="0" y2="0" gradientUnits="userSpaceOnUse">
<stop stop-color="#04B0E0"/>
<stop offset="1" stop-color="#0067CC"/>
</linearGradient>
<clipPath id="clip0_171_2">
<rect width="29" height="29" fill="white" transform="translate(11 11)"/>
</clipPath>
</defs>
</svg>
