<svg width="51" height="51" viewBox="0 0 51 51" fill="none" xmlns="http://www.w3.org/2000/svg">
<rect width="51" height="51" rx="5" fill="#131F38"/>
<g clip-path="url(#clip0_399_5)">
<path d="M14 31.2383H37V13.7188H14V31.2383ZM27.5215 17.7617H28.8691V16.4141H30.2168V17.7617H34.2598V19.1094H30.2168V20.457H28.8691V19.1094H27.5215V17.7617ZM27.5215 21.8047H31.5645V20.457H32.9121V21.8047H34.2598V23.1523H32.9121V24.5H31.5645V23.1523H27.5215V21.8047ZM27.5215 25.8477H28.8691V24.5H30.2168V25.8477H34.2598V27.1953H30.2168V28.543H28.8691V27.1953H27.5215V25.8477ZM16.7402 21.8047H18.1561C18.2436 21.3753 18.4149 20.9769 18.6492 20.6235L17.6457 19.62L18.5985 18.6672L19.602 19.6707C19.9554 19.4364 20.3538 19.2651 20.7832 19.1776V17.7617H22.1309V19.1776C22.5602 19.2651 22.9587 19.4364 23.312 19.6707L24.3155 18.6672L25.2684 19.62L24.2649 20.6235C24.4991 20.9769 24.6705 21.3753 24.758 21.8047H26.1738V23.1523H24.758C24.6705 23.5817 24.4991 23.9802 24.2649 24.3335L25.2684 25.337L24.3155 26.2899L23.312 25.2864C22.9587 25.5206 22.5602 25.692 22.1309 25.7795V27.1953H20.7832V25.7795C20.3538 25.692 19.9554 25.5206 19.602 25.2864L18.5985 26.2899L17.6457 25.337L18.6492 24.3335C18.4149 23.9802 18.2436 23.5817 18.1561 23.1523H16.7402V21.8047Z" fill="white"/>
<path d="M21.457 24.5C22.5717 24.5 23.4785 23.5932 23.4785 22.4785C23.4785 21.3638 22.5717 20.457 21.457 20.457C20.3423 20.457 19.4355 21.3638 19.4355 22.4785C19.4355 23.5932 20.3423 24.5 21.457 24.5ZM20.7832 21.8047H22.1309V23.1523H20.7832V21.8047ZM31.5645 33.9336H29.543C28.6656 33.9336 27.9247 33.3686 27.6456 32.5859H23.3544C23.0753 33.3686 22.3344 33.9336 21.457 33.9336H19.4355V35.2812H31.5645V33.9336Z" fill="white"/>
</g>
<defs>
<clipPath id="clip0_399_5">
<rect width="23" height="23" fill="white" transform="translate(14 13)"/>
</clipPath>
</defs>
</svg>
