<svg width="31" height="30" viewBox="0 0 31 30" fill="none" xmlns="http://www.w3.org/2000/svg">
<path d="M29.7656 22.1923C29.0318 23.5493 27.9924 24.7403 26.7557 25.6618C26.6907 25.7099 26.6258 25.7581 26.5584 25.8062C26.0761 26.1531 25.564 26.4566 25.0282 26.7132C24.9415 26.7566 24.8525 26.7975 24.7635 26.8384C24.5061 26.9539 24.2462 27.0573 23.9815 27.1536L23.8949 27.1824C23.6976 27.2522 23.4979 27.3172 23.2958 27.3749C23.2333 27.3942 23.1707 27.411 23.1106 27.4278C23.0865 27.4351 23.0648 27.4399 23.0432 27.4471C22.8988 27.4856 22.7545 27.5241 22.6077 27.5578C22.5836 27.5626 22.5572 27.5698 22.5331 27.5746C22.4489 27.5939 22.3647 27.6107 22.2805 27.6299C21.4985 27.7936 20.6997 27.8898 19.8937 27.9427C19.2946 27.986 18.6907 28.0029 18.0844 28.0029H18.0627C18.0122 28.0029 17.9593 28.0029 17.9064 28.0005C17.7644 28.0029 17.6224 28.0005 17.4805 27.9981C16.6456 27.986 15.8131 27.9523 14.9879 27.9139C14.0615 27.8729 13.1352 27.8296 12.2137 27.7502C11.9322 27.7286 11.6507 27.7021 11.3716 27.6708C11.1864 27.6492 10.9987 27.6275 10.8134 27.6035C10.6426 27.5818 10.4718 27.5578 10.3009 27.5289C10.1758 27.512 10.0507 27.4904 9.9256 27.4687C9.8462 27.4567 9.7644 27.4423 9.685 27.4278C9.65613 27.423 9.62485 27.4158 9.59598 27.411C9.37793 27.3695 9.16056 27.3246 8.94395 27.2763C8.94154 27.2763 8.93673 27.2739 8.93432 27.2739C8.82365 27.2498 8.71297 27.2233 8.6047 27.1945C8.53252 27.1752 8.45793 27.1584 8.38575 27.1367C8.31598 27.1199 8.24861 27.1006 8.18124 27.0814C8.10184 27.0597 8.02244 27.0357 7.94305 27.0116C7.83237 26.9803 7.7241 26.9466 7.61583 26.9081C7.36944 26.8304 7.12624 26.7429 6.88681 26.6459C6.78816 26.6074 6.69192 26.5689 6.59568 26.528C6.53553 26.5039 6.47297 26.4775 6.41523 26.451C6.41282 26.451 6.41041 26.451 6.40801 26.4486C6.31658 26.4101 6.22275 26.3668 6.13132 26.3235C6.0447 26.2826 5.96049 26.2393 5.87387 26.196C5.71989 26.119 5.5659 26.0372 5.41673 25.9529C5.38305 25.9361 5.34936 25.9169 5.31568 25.8952C5.21703 25.8375 5.11838 25.7797 5.01974 25.7196C4.99087 25.7027 4.9644 25.6835 4.93553 25.6642C4.83688 25.6041 4.74064 25.5415 4.64681 25.4742C4.53613 25.3996 4.42545 25.3202 4.31959 25.2384C4.23538 25.1758 4.15117 25.1108 4.06936 25.0435C3.89372 24.9039 3.7229 24.7548 3.55929 24.5984C3.5232 24.5647 3.48951 24.531 3.45342 24.4925C2.24079 23.3063 1.39869 21.7785 0.833272 20.1761C-0.612743 16.0835 -0.220563 11.2498 2.35387 7.75144C2.84994 7.07862 3.426 6.46863 4.06936 5.9349C5.17645 5.00781 6.45387 4.30576 7.82996 3.86814C8.62876 3.6131 9.45402 3.4543 10.2817 3.39896C11.1599 3.34362 12.0429 3.40378 12.9018 3.60107C13.0101 3.62272 13.1184 3.64919 13.2242 3.68047C13.4336 3.7334 13.6405 3.79596 13.845 3.86814C13.857 3.87054 13.8691 3.87535 13.8811 3.88017C14.2829 4.02212 14.6727 4.19054 15.0504 4.38302C15.1202 4.41671 15.19 4.4528 15.2573 4.48889C15.356 4.53941 15.4546 4.59235 15.5509 4.64528C15.7602 4.76317 15.9671 4.88588 16.1716 5.01581H16.174C16.1764 5.01581 16.1764 5.01581 16.1788 5.01821C16.6504 5.30934 17.1076 5.62693 17.5575 5.95415C17.916 6.21159 18.2673 6.47626 18.6185 6.74092C19.6507 7.51806 20.6853 8.2928 21.7175 9.06994C22.3142 9.51987 22.9109 9.96738 23.5076 10.4149C23.5605 10.4558 23.6158 10.4943 23.6688 10.5352C23.7433 10.5929 23.8179 10.6507 23.8949 10.706C23.9118 10.7205 23.931 10.7325 23.9479 10.7469C24.4435 11.1175 24.9271 11.4206 25.4179 11.6925C25.4997 11.7382 25.5791 11.7815 25.6609 11.8248C25.7476 11.8705 25.8366 11.9187 25.9232 11.9644C26.1975 12.1063 26.4742 12.2411 26.7557 12.3806C27.0877 12.5442 27.427 12.7126 27.7758 12.8931C27.7879 12.9003 27.7999 12.9051 27.8119 12.9123C31.2766 14.712 31.433 19.103 29.7656 22.1923Z" fill="url(#paint0_linear_356_363)"/>
<path d="M25.6605 11.8236L12.2133 27.7491C11.9318 27.7274 11.6503 27.7009 11.3712 27.6697C11.1715 23.6492 10.4449 8.83778 10.2812 3.39778C11.4963 3.32079 12.7185 3.46755 13.8806 3.87898C15.6274 4.49733 17.136 5.62575 18.6181 6.73973C20.3937 8.07507 22.1718 9.41041 23.9474 10.7457C24.5249 11.1788 25.0879 11.5181 25.6605 11.8236Z" fill="url(#paint1_linear_356_363)"/>
<path d="M21.4056 5.92651V11.0018C21.4059 11.3275 21.3419 11.6502 21.2173 11.9512C21.0928 12.2522 20.9101 12.5258 20.6797 12.7561C20.4493 12.9865 20.1758 13.1691 19.8747 13.2937C19.5737 13.4182 19.251 13.4822 18.9252 13.4819H10.5309C10.2051 13.4821 9.88252 13.4181 9.5815 13.2936C9.28049 13.1691 9.00698 12.9864 8.77663 12.756C8.54628 12.5257 8.3636 12.2522 8.23905 11.9512C8.11451 11.6501 8.05053 11.3275 8.05078 11.0018V5.92651C8.05056 5.60078 8.11455 5.27821 8.2391 4.97723C8.36365 4.67626 8.54631 4.40279 8.77663 4.17247C9.00695 3.94215 9.28042 3.75949 9.58139 3.63494C9.88236 3.5104 10.2049 3.4464 10.5307 3.44663H18.9252C19.251 3.44634 19.5737 3.5103 19.8747 3.63483C20.1758 3.75936 20.4493 3.94203 20.6797 4.17239C20.9101 4.40274 21.0928 4.67626 21.2173 4.97729C21.3419 5.27832 21.4059 5.60072 21.4056 5.92651Z" fill="url(#paint2_linear_356_363)"/>
<path d="M19.7481 7.92278C19.7481 8.43187 19.5458 8.92011 19.1859 9.28009C18.8259 9.64007 18.3377 9.8423 17.8286 9.8423H11.6285C11.1194 9.8423 10.6312 9.64007 10.2712 9.28009C9.91122 8.92011 9.70898 8.43187 9.70898 7.92278V6.00327H17.8286C18.3377 6.00327 18.8259 6.2055 19.1859 6.56548C19.5458 6.92546 19.7481 7.4137 19.7481 7.92278Z" fill="url(#paint3_linear_356_363)"/>
<path d="M21.4942 14.5942H7.9604C7.69532 14.5942 7.44111 14.6995 7.25367 14.8869C7.06624 15.0743 6.96094 15.3286 6.96094 15.5936V27.0453H22.4939V15.5936C22.4939 15.3286 22.3886 15.0743 22.2012 14.8869C22.0138 14.6995 21.7595 14.5942 21.4945 14.5942H21.4942Z" fill="url(#paint4_linear_356_363)"/>
<path d="M12.8027 13.4819H16.6531V14.5942H12.8027V13.4819Z" fill="url(#paint5_linear_356_363)"/>
<path d="M22.0381 10.2944H21.4062V6.63385H22.0381C22.1401 6.63385 22.2412 6.65395 22.3355 6.69301C22.4298 6.73206 22.5154 6.78931 22.5876 6.86147C22.6598 6.93363 22.717 7.01931 22.7561 7.11359C22.7951 7.20788 22.8152 7.30894 22.8152 7.41099V9.51746C22.8151 9.72353 22.7332 9.92114 22.5875 10.0668C22.4418 10.2125 22.2441 10.2944 22.0381 10.2944Z" fill="url(#paint6_linear_356_363)"/>
<path d="M7.41777 10.2944H8.04983V6.63385H7.41777C7.21166 6.63385 7.01399 6.71573 6.86824 6.86147C6.7225 7.00721 6.64063 7.20488 6.64062 7.41099V9.51746C6.64069 9.72353 6.72259 9.92114 6.86833 10.0668C7.01407 10.2125 7.2117 10.2944 7.41777 10.2944Z" fill="url(#paint7_linear_356_363)"/>
<path d="M14.7291 3.67687C14.6995 3.6769 14.6702 3.6711 14.6429 3.65979C14.6156 3.64849 14.5907 3.6319 14.5698 3.61098C14.5489 3.59006 14.5323 3.56523 14.521 3.53789C14.5097 3.51055 14.5039 3.48125 14.5039 3.45167V1.94695C14.5039 1.88728 14.5276 1.83006 14.5698 1.78787C14.612 1.74569 14.6692 1.72198 14.7289 1.72198C14.7885 1.72198 14.8458 1.74569 14.8879 1.78787C14.9301 1.83006 14.9538 1.88728 14.9538 1.94695V3.45167C14.9539 3.48121 14.9481 3.51047 14.9368 3.53778C14.9255 3.56508 14.909 3.5899 14.8881 3.61081C14.8672 3.63172 14.8425 3.64832 14.8152 3.65966C14.7879 3.67099 14.7587 3.67684 14.7291 3.67687Z" fill="url(#paint8_linear_356_363)"/>
<path d="M16.4187 4.75068H13.037C12.8817 4.75068 12.7326 4.68896 12.6228 4.57909C12.5129 4.46922 12.4512 4.3202 12.4512 4.16482V3.44662H17.0046V4.16506C17.0046 4.32044 16.9428 4.46946 16.833 4.57933C16.7231 4.6892 16.5741 4.75093 16.4187 4.75093V4.75068Z" fill="url(#paint9_linear_356_363)"/>
<path d="M24.4741 29.4855H5.50604C4.89419 29.4855 4.35428 29.062 4.17768 28.4429L4.05208 28.0029C4.02904 27.9221 4.02505 27.8371 4.04043 27.7545C4.05582 27.672 4.09015 27.5941 4.14073 27.527C4.19132 27.46 4.25677 27.4056 4.33194 27.3681C4.40712 27.3307 4.48996 27.3112 4.57395 27.3112H25.4062C25.4902 27.3111 25.5731 27.3306 25.6483 27.3681C25.7235 27.4055 25.789 27.4599 25.8396 27.527C25.8902 27.594 25.9245 27.6719 25.9399 27.7545C25.9553 27.8371 25.9513 27.9221 25.9283 28.0029L25.8025 28.4432C25.6259 29.062 25.0862 29.4855 24.4741 29.4855Z" fill="url(#paint10_linear_356_363)"/>
<path d="M26.1776 18.0439L24.6478 28.5413C24.6091 28.8038 24.4773 29.0436 24.2765 29.2169C24.0756 29.3903 23.8191 29.4856 23.5538 29.4855H6.42442C6.15942 29.4855 5.90327 29.3901 5.70285 29.2167C5.50244 29.0433 5.37116 28.8036 5.33306 28.5413L3.80042 18.0439C3.70515 17.3782 4.22124 16.7795 4.89444 16.7795H25.0838C25.757 16.7795 26.2757 17.3784 26.1776 18.0439Z" fill="url(#paint11_linear_356_363)"/>
<path d="M14.9905 24.8419C15.9345 24.8419 16.6997 24.0766 16.6997 23.1326C16.6997 22.1887 15.9345 21.4234 14.9905 21.4234C14.0465 21.4234 13.2812 22.1887 13.2812 23.1326C13.2812 24.0766 14.0465 24.8419 14.9905 24.8419Z" fill="url(#paint12_linear_356_363)"/>
<path d="M18.247 7.9223C18.2471 8.18291 18.1438 8.43292 17.9597 8.61742C17.7757 8.80193 17.5259 8.90585 17.2653 8.90636C17.0044 8.90604 16.7543 8.80226 16.5698 8.61778C16.3853 8.4333 16.2816 8.18319 16.2812 7.9223C16.2818 7.66169 16.3857 7.41193 16.5702 7.22788C16.7547 7.04382 17.0047 6.94052 17.2653 6.94064C17.5257 6.94064 17.7753 7.04407 17.9594 7.22816C18.1435 7.41226 18.247 7.66195 18.247 7.9223Z" fill="url(#paint13_linear_356_363)"/>
<path d="M13.1747 7.9223C13.1748 8.18291 13.0715 8.43292 12.8875 8.61742C12.7034 8.80193 12.4537 8.90585 12.193 8.90636C11.9322 8.90604 11.682 8.80226 11.4976 8.61778C11.3131 8.4333 11.2093 8.18319 11.209 7.9223C11.2095 7.66169 11.3134 7.41193 11.4979 7.22788C11.6824 7.04382 11.9324 6.94052 12.193 6.94064C12.4534 6.94064 12.7031 7.04407 12.8872 7.22816C13.0713 7.41226 13.1747 7.66195 13.1747 7.9223Z" fill="url(#paint14_linear_356_363)"/>
<path d="M12.951 10.842C12.8151 10.842 12.7111 10.9685 12.7417 11.1006C12.8387 11.5168 13.0736 11.8879 13.4082 12.1536C13.7429 12.4193 14.1576 12.5639 14.5849 12.564C15.0122 12.5639 15.4269 12.4192 15.7615 12.1535C16.0961 11.8878 16.331 11.5168 16.428 11.1006C16.4587 10.9683 16.3548 10.842 16.2191 10.842H12.951Z" fill="url(#paint15_linear_356_363)"/>
<path d="M14.7284 2.30448C15.3648 2.30448 15.8807 1.78861 15.8807 1.15224C15.8807 0.515876 15.3648 0 14.7284 0C14.092 0 13.5762 0.515876 13.5762 1.15224C13.5762 1.78861 14.092 2.30448 14.7284 2.30448Z" fill="url(#paint16_linear_356_363)"/>
<path d="M14.7285 1.86514C15.1223 1.86514 15.4414 1.54596 15.4414 1.15223C15.4414 0.758508 15.1223 0.439331 14.7285 0.439331C14.3348 0.439331 14.0156 0.758508 14.0156 1.15223C14.0156 1.54596 14.3348 1.86514 14.7285 1.86514Z" fill="url(#paint17_linear_356_363)"/>
<defs>
<linearGradient id="paint0_linear_356_363" x1="3.31676" y1="7.91866" x2="12.1389" y2="15.5777" gradientUnits="userSpaceOnUse">
<stop stop-color="#E8EFFB"/>
<stop offset="1" stop-color="#ADC1E7"/>
</linearGradient>
<linearGradient id="paint1_linear_356_363" x1="15.9082" y1="17.7051" x2="11.5774" y2="14.9382" gradientUnits="userSpaceOnUse">
<stop stop-color="#E8EFFB"/>
<stop offset="1" stop-color="#ADC1E7"/>
</linearGradient>
<linearGradient id="paint2_linear_356_363" x1="8.05078" y1="8.46413" x2="21.4056" y2="8.46413" gradientUnits="userSpaceOnUse">
<stop stop-color="#63B1FF"/>
<stop offset="1" stop-color="#4EA3EA"/>
</linearGradient>
<linearGradient id="paint3_linear_356_363" x1="9.70898" y1="7.92278" x2="19.7481" y2="7.92278" gradientUnits="userSpaceOnUse">
<stop stop-color="#213661"/>
<stop offset="1" stop-color="#081E4B"/>
</linearGradient>
<linearGradient id="paint4_linear_356_363" x1="6.96094" y1="20.8197" x2="22.4939" y2="20.8197" gradientUnits="userSpaceOnUse">
<stop stop-color="#63B1FF"/>
<stop offset="1" stop-color="#4EA3EA"/>
</linearGradient>
<linearGradient id="paint5_linear_356_363" x1="12.8027" y1="14.0379" x2="16.6531" y2="14.0379" gradientUnits="userSpaceOnUse">
<stop stop-color="#213661"/>
<stop offset="1" stop-color="#081E4B"/>
</linearGradient>
<linearGradient id="paint6_linear_356_363" x1="21.4062" y1="8.46411" x2="22.815" y2="8.46411" gradientUnits="userSpaceOnUse">
<stop stop-color="#213661"/>
<stop offset="1" stop-color="#081E4B"/>
</linearGradient>
<linearGradient id="paint7_linear_356_363" x1="6.64087" y1="8.46411" x2="8.04983" y2="8.46411" gradientUnits="userSpaceOnUse">
<stop stop-color="#213661"/>
<stop offset="1" stop-color="#081E4B"/>
</linearGradient>
<linearGradient id="paint8_linear_356_363" x1="14.5029" y1="2.69931" x2="14.955" y2="2.69931" gradientUnits="userSpaceOnUse">
<stop stop-color="#213661"/>
<stop offset="1" stop-color="#081E4B"/>
</linearGradient>
<linearGradient id="paint9_linear_356_363" x1="12.4512" y1="4.09865" x2="17.0046" y2="4.09865" gradientUnits="userSpaceOnUse">
<stop stop-color="#213661"/>
<stop offset="1" stop-color="#081E4B"/>
</linearGradient>
<linearGradient id="paint10_linear_356_363" x1="4.03091" y1="28.3984" x2="25.9495" y2="28.3984" gradientUnits="userSpaceOnUse">
<stop stop-color="#213661"/>
<stop offset="1" stop-color="#081E4B"/>
</linearGradient>
<linearGradient id="paint11_linear_356_363" x1="14.9894" y1="22.004" x2="14.9894" y2="29.5324" gradientUnits="userSpaceOnUse">
<stop stop-color="#083F9E"/>
<stop offset="1" stop-color="#053477"/>
</linearGradient>
<linearGradient id="paint12_linear_356_363" x1="14.9905" y1="22.829" x2="14.9905" y2="24.8544" gradientUnits="userSpaceOnUse">
<stop stop-color="#213661"/>
<stop offset="1" stop-color="#081E4B"/>
</linearGradient>
<linearGradient id="paint13_linear_356_363" x1="16.2813" y1="7.9235" x2="18.247" y2="7.9235" gradientUnits="userSpaceOnUse">
<stop stop-color="#FFD46A"/>
<stop offset="1" stop-color="#F4883B"/>
</linearGradient>
<linearGradient id="paint14_linear_356_363" x1="11.209" y1="7.9235" x2="13.1747" y2="7.9235" gradientUnits="userSpaceOnUse">
<stop stop-color="#FFD46A"/>
<stop offset="1" stop-color="#F4883B"/>
</linearGradient>
<linearGradient id="paint15_linear_356_363" x1="12.728" y1="11.7031" x2="16.4419" y2="11.7031" gradientUnits="userSpaceOnUse">
<stop stop-color="#213661"/>
<stop offset="1" stop-color="#081E4B"/>
</linearGradient>
<linearGradient id="paint16_linear_356_363" x1="13.5709" y1="1.15224" x2="15.8857" y2="1.15224" gradientUnits="userSpaceOnUse">
<stop stop-color="#FFD46A"/>
<stop offset="1" stop-color="#F4883B"/>
</linearGradient>
<linearGradient id="paint17_linear_356_363" x1="14.8462" y1="0.988865" x2="14.4737" y2="1.50592" gradientUnits="userSpaceOnUse">
<stop stop-color="#FFD46A"/>
<stop offset="1" stop-color="#F4883B"/>
</linearGradient>
</defs>
</svg>
