<svg width="51" height="51" viewBox="0 0 51 51" fill="none" xmlns="http://www.w3.org/2000/svg">
<rect width="51" height="51" rx="5" fill="url(#paint0_linear_400_7)"/>
<path d="M25.0471 36.08C22.4071 36.08 20.2921 35.2657 18.7643 33.6586C15.5714 30.2986 15.8693 24.4272 15.9785 22.2157L15.9957 21.8857C16.0107 21.5429 16.3 21.2793 16.6428 21.2943C16.9857 21.3093 17.2493 21.5986 17.2343 21.9415L17.2171 22.28C17.1121 24.3436 16.8335 29.8315 19.6621 32.8036C20.9478 34.1557 22.7564 34.8415 25.045 34.8415C27.3335 34.8415 29.1443 34.1557 30.43 32.8036C33.2564 29.8315 32.9778 24.3436 32.8728 22.2779L32.8557 21.9415C32.8407 21.5986 33.1043 21.3093 33.4471 21.2943C33.79 21.2793 34.0793 21.5429 34.0943 21.8857L34.1114 22.2157C34.2228 24.4272 34.5207 30.2986 31.3257 33.6586C29.8021 35.2657 27.6893 36.08 25.0471 36.08Z" fill="white"/>
<path d="M15.1657 32.4029C14.4114 32.3793 13.6786 32.1414 13.0529 31.7193C12.1357 31.1514 11.465 30.035 11.1671 28.5736C10.7279 26.4307 11.06 23.0171 13.31 19.8243C14.6485 17.9307 16.4602 16.4212 18.5643 15.4464C22.6786 13.5179 27.4357 13.5179 31.55 15.4464C33.6541 16.4212 35.4658 17.9307 36.8043 19.8243C39.0457 23.0171 39.3757 26.4371 38.9471 28.5736C38.6493 30.035 37.9786 31.145 37.0636 31.7193C35.8357 32.48 34.5821 32.6086 33.6221 32.075C32.7886 31.61 32.2914 30.6993 32.2914 29.6343C32.2914 29.2914 32.5679 29.015 32.9107 29.015C33.2536 29.015 33.53 29.2914 33.53 29.6343C33.53 30.2514 33.7829 30.7464 34.2243 30.9929C34.7793 31.3014 35.5764 31.1814 36.41 30.665C37.025 30.2857 37.5071 29.4329 37.7343 28.325C38.12 26.4414 37.8136 23.4071 35.8057 20.5379C34.591 18.8196 32.9471 17.4498 31.0379 16.565C29.1717 15.6907 27.1361 15.2375 25.0754 15.2375C23.0146 15.2375 20.979 15.6907 19.1129 16.565C17.2028 17.4503 15.5576 18.8199 14.3407 20.5379C12.3264 23.4071 12.02 26.4414 12.4121 28.325C12.6393 29.4329 13.1214 30.2857 13.7364 30.665C14.5571 31.175 15.3329 31.2971 15.86 31.0036C16.2886 30.7636 16.5371 30.2643 16.5371 29.6343C16.5371 29.2914 16.8157 29.015 17.1564 29.015C17.4971 29.015 17.7757 29.2914 17.7757 29.6343C17.7757 30.7057 17.285 31.6271 16.4621 32.0857C16.0649 32.3022 15.6181 32.4115 15.1657 32.4029Z" fill="white"/>
<path d="M21.4581 21.697C22.1739 21.9349 22.5296 22.7685 22.2746 23.5699C22.0196 24.3713 21.216 24.8192 20.5003 24.5835C19.7846 24.3478 19.4289 23.512 19.6839 22.7106C19.9389 21.9092 20.7403 21.4613 21.4581 21.697ZM28.6389 21.697C27.9231 21.9349 27.5567 22.7685 27.8203 23.5699C28.0839 24.3713 28.8789 24.8192 29.5946 24.5835C30.3103 24.3478 30.666 23.512 30.411 22.7106C30.156 21.9092 29.3546 21.4613 28.6389 21.697ZM25.0474 26.4199C23.9331 26.4199 23.0289 26.7285 23.0289 27.3456C23.0289 28.1663 23.9331 28.987 25.0474 28.987C26.1617 28.987 27.0681 28.1663 27.0681 27.3456C27.0681 26.7263 26.1639 26.4199 25.0474 26.4199Z" fill="white"/>
<path d="M22.9146 31.9915C21.8068 32.0065 20.8296 31.2758 20.5296 30.2087C20.4525 29.8744 20.6625 29.5423 20.9968 29.4673C21.3311 29.3901 21.6632 29.6001 21.7382 29.9323C21.8025 30.2194 22.2953 30.933 23.3025 30.708C24.4596 30.4487 24.3911 28.8373 24.3889 28.8223C24.3831 28.6592 24.4416 28.5004 24.5519 28.3801C24.6621 28.2598 24.8153 28.1877 24.9782 28.1794C25.3146 28.1708 25.5996 28.4301 25.6211 28.7665C25.6682 29.6901 25.2996 31.5373 23.5661 31.9251C23.3518 31.9723 23.1332 31.9958 22.9146 31.9915Z" fill="white"/>
<path d="M27.1835 31.9914C26.9628 31.9914 26.7421 31.9657 26.5256 31.9164C24.7921 31.5286 24.4235 29.6814 24.4706 28.7578C24.4816 28.596 24.5546 28.4447 24.6743 28.3354C24.7941 28.226 24.9514 28.167 25.1135 28.1707C25.2765 28.179 25.4296 28.2511 25.5398 28.3714C25.6501 28.4917 25.7086 28.6505 25.7028 28.8136C25.7028 28.8778 25.6449 30.4421 26.7892 30.6993C27.7964 30.9243 28.2892 30.2086 28.3535 29.9236C28.3716 29.8443 28.4051 29.7694 28.4522 29.7031C28.4992 29.6368 28.5589 29.5805 28.6278 29.5373C28.6966 29.4941 28.7734 29.4649 28.8535 29.4514C28.9337 29.4379 29.0157 29.4403 29.0949 29.4586C29.255 29.4954 29.3939 29.594 29.4814 29.7329C29.569 29.8718 29.598 30.0398 29.5621 30.2C29.4185 30.719 29.1074 31.176 28.6773 31.5C28.2471 31.8239 27.722 31.9967 27.1835 31.9914Z" fill="white"/>
<defs>
<linearGradient id="paint0_linear_400_7" x1="51" y1="41" x2="0" y2="0" gradientUnits="userSpaceOnUse">
<stop stop-color="#05BD74"/>
<stop offset="1" stop-color="#01C65B"/>
</linearGradient>
</defs>
</svg>
