<svg width="21" height="21" viewBox="0 0 21 21" fill="none" xmlns="http://www.w3.org/2000/svg">
<path fill-rule="evenodd" clip-rule="evenodd" d="M15.75 1.5H11.25V0.75C11.25 0.551088 11.171 0.360322 11.0303 0.21967C10.8897 0.0790176 10.6989 0 10.5 0C10.3011 0 10.1103 0.0790176 9.96967 0.21967C9.82902 0.360322 9.75 0.551088 9.75 0.75V1.5H5.25V0.75C5.25 0.551088 5.17098 0.360322 5.03033 0.21967C4.88968 0.0790176 4.69891 0 4.5 0C4.30109 0 4.11032 0.0790176 3.96967 0.21967C3.82902 0.360322 3.75 0.551088 3.75 0.75V1.5H2.25C1.008 1.5 0 2.508 0 3.75V18.75C0 19.992 1.008 21 2.25 21H9C9.19891 21 9.38968 20.921 9.53033 20.7803C9.67098 20.6397 9.75 20.4489 9.75 20.25C9.75 20.0511 9.67098 19.8603 9.53033 19.7197C9.38968 19.579 9.19891 19.5 9 19.5H2.25C2.05109 19.5 1.86032 19.421 1.71967 19.2803C1.57902 19.1397 1.5 18.9489 1.5 18.75V7.5H19.5V9C19.5 9.19891 19.579 9.38968 19.7197 9.53033C19.8603 9.67098 20.0511 9.75 20.25 9.75C20.4489 9.75 20.6397 9.67098 20.7803 9.53033C20.921 9.38968 21 9.19891 21 9V3.75C21 2.508 19.992 1.5 18.75 1.5H17.25V0.75C17.25 0.551088 17.171 0.360322 17.0303 0.21967C16.8897 0.0790176 16.6989 0 16.5 0C16.3011 0 16.1103 0.0790176 15.9697 0.21967C15.829 0.360322 15.75 0.551088 15.75 0.75V1.5ZM15 9C11.6888 9 9 11.6888 9 15C9 18.3113 11.6888 21 15 21C18.3113 21 21 18.3113 21 15C21 11.6888 18.3113 9 15 9ZM15 10.5C17.4832 10.5 19.5 12.5168 19.5 15C19.5 17.4832 17.4832 19.5 15 19.5C12.5168 19.5 10.5 17.4832 10.5 15C10.5 12.5168 12.5168 10.5 15 10.5ZM12.5947 15.5303L14.0947 17.0303C14.1706 17.1065 14.262 17.1654 14.3627 17.2031C14.4634 17.2408 14.571 17.2564 14.6782 17.2488C14.7855 17.2412 14.8898 17.2106 14.9842 17.159C15.0785 17.1074 15.1607 17.0362 15.225 16.95L17.475 13.95C17.5943 13.7909 17.6456 13.5908 17.6175 13.3939C17.5893 13.197 17.4841 13.0193 17.325 12.9C17.1659 12.7807 16.9658 12.7294 16.7689 12.7575C16.572 12.7857 16.3943 12.8909 16.275 13.05L14.544 15.3585L13.6553 14.4697C13.5138 14.3331 13.3243 14.2575 13.1277 14.2592C12.9311 14.261 12.7429 14.3398 12.6039 14.4789C12.4648 14.6179 12.386 14.8061 12.3842 15.0027C12.3825 15.1993 12.4581 15.3888 12.5947 15.5303ZM3.75 3H2.25C2.05109 3 1.86032 3.07902 1.71967 3.21967C1.57902 3.36032 1.5 3.55109 1.5 3.75V6H19.5V3.75C19.5 3.55109 19.421 3.36032 19.2803 3.21967C19.1397 3.07902 18.9489 3 18.75 3H17.25V3.75C17.25 3.94891 17.171 4.13968 17.0303 4.28033C16.8897 4.42098 16.6989 4.5 16.5 4.5C16.3011 4.5 16.1103 4.42098 15.9697 4.28033C15.829 4.13968 15.75 3.94891 15.75 3.75V3H11.25V3.75C11.25 3.94891 11.171 4.13968 11.0303 4.28033C10.8897 4.42098 10.6989 4.5 10.5 4.5C10.3011 4.5 10.1103 4.42098 9.96967 4.28033C9.82902 4.13968 9.75 3.94891 9.75 3.75V3H5.25V3.75C5.25 3.94891 5.17098 4.13968 5.03033 4.28033C4.88968 4.42098 4.69891 4.5 4.5 4.5C4.30109 4.5 4.11032 4.42098 3.96967 4.28033C3.82902 4.13968 3.75 3.94891 3.75 3.75V3Z" fill="#4C4C4C"/>
</svg>
