<svg width="105" height="105" viewBox="0 0 105 105" fill="none" xmlns="http://www.w3.org/2000/svg">
<circle cx="52.5" cy="52.5" r="52.5" fill="#E4EDFD"/>
<path d="M57.0294 58.6801C56.6594 58.5101 56.2694 58.3201 56.1194 58.1701C56.0094 58.0601 55.8594 57.5201 55.7594 57.1601C55.2794 55.4001 54.4794 52.4501 49.4194 52.4501C44.3594 52.4501 43.5594 55.4001 43.0794 57.1701C42.9794 57.5201 42.8394 58.0601 42.7194 58.1801C42.5794 58.3201 42.1894 58.5101 41.8194 58.6801C40.3394 59.3801 37.5894 60.6701 38.7994 65.3101C40.0494 70.0601 44.0794 69.0701 46.7494 68.4201C47.7394 68.1701 48.6794 67.9401 49.4194 67.9401C50.1694 67.9401 51.1094 68.1701 52.0994 68.4201C53.1294 68.6701 54.3694 68.9701 55.5794 68.9701C56.5194 68.9701 57.4494 68.7801 58.2294 68.2301C59.0194 67.6801 59.6594 66.7601 60.0394 65.3101C61.2594 60.6701 58.5094 59.3801 57.0294 58.6801ZM42.1994 54.1501V54.0101C42.1194 52.6001 40.8394 49.7201 39.2194 48.6101C38.3494 48.0201 37.6094 48.0801 37.1394 48.2301C35.6594 48.7301 34.7194 50.8501 34.3694 52.5301C33.8994 54.7201 34.2694 56.5601 35.3794 57.5801C35.9994 58.1501 36.7594 58.4401 37.5694 58.4401C38.1394 58.4401 38.7294 58.3001 39.3294 58.0201C40.7494 57.3501 42.1994 55.7801 42.1994 54.1501ZM45.5794 51.1101C45.7894 51.1101 46.0094 51.0901 46.2194 51.0501C47.5594 50.7801 48.5394 49.5401 48.5394 48.1101V41.5501C48.5399 41.2077 48.4443 40.872 48.2635 40.5811C48.0827 40.2903 47.824 40.0561 47.5167 39.905C47.2093 39.754 46.8658 39.6922 46.5251 39.7266C46.1844 39.7611 45.8602 39.8905 45.5894 40.1001C43.7994 41.5001 41.6094 43.6701 41.3494 46.0401C41.1894 47.5401 41.7394 48.9701 42.8394 49.9901C43.6394 50.7101 44.6194 51.1101 45.5794 51.1101ZM52.6294 51.0501C52.8394 51.0901 53.0494 51.1101 53.2694 51.1101C54.2194 51.1101 55.2094 50.7101 55.9994 49.9901C56.5431 49.497 56.9617 48.8816 57.2208 48.1948C57.4799 47.508 57.5719 46.7695 57.4894 46.0401C57.2394 43.6701 55.0394 41.5001 53.2494 40.1001C52.6994 39.6801 51.9694 39.6001 51.3394 39.9001C50.6994 40.2101 50.3094 40.8401 50.3094 41.5501V48.1101C50.3094 49.5401 51.2894 50.7801 52.6294 51.0501ZM67.9594 37.8301L65.8294 35.7001C65.7369 35.6074 65.627 35.5339 65.506 35.4837C65.3851 35.4335 65.2554 35.4077 65.1244 35.4077C64.9934 35.4077 64.8637 35.4335 64.7428 35.4837C64.6218 35.5339 64.5119 35.6074 64.4194 35.7001L61.8294 38.2901C61.7367 38.3826 61.6632 38.4925 61.613 38.6135C61.5628 38.7345 61.537 38.8641 61.537 38.9951C61.537 39.1261 61.5628 39.2558 61.613 39.3767C61.6632 39.4977 61.7367 39.6076 61.8294 39.7001L67.2494 45.1301C67.4394 45.3201 67.6894 45.4201 67.9594 45.4201C68.2194 45.4201 68.4794 45.3201 68.6694 45.1301L77.8094 35.9901C78.1994 35.6001 78.1994 34.9601 77.8094 34.5701L75.2194 31.9901C75.1281 31.8952 75.0187 31.8197 74.8975 31.7681C74.7764 31.7165 74.6461 31.6899 74.5144 31.6899C74.3827 31.6899 74.2524 31.7165 74.1313 31.7681C74.0101 31.8197 73.9007 31.8952 73.8094 31.9901L67.9594 37.8301Z" fill="#4C545F"/>
<path d="M81.92 28.17C79.18 28.41 76.75 28.14 74.67 27.36C74.04 27.14 73.42 26.86 72.85 26.52C71.32 25.63 70.63 24.73 70.62 24.72C70.44 24.47 70.12 24.3 69.82 24.32C69.5 24.32 69.2 24.47 69.01 24.72C69 24.73 68.03 26.01 65.81 27.02C63.52 28.06 60.8 28.44 57.73 28.17C57.47 28.15 57.18 28.24 56.97 28.43C56.77 28.62 56.65 28.89 56.65 29.17V29.84C54.31 29.18 51.88 28.84 49.42 28.84C34.85 28.84 23 40.69 23 55.26C23 69.83 34.85 81.68 49.42 81.68C63.99 81.68 75.84 69.83 75.84 55.26C75.84 53.56 75.68 51.85 75.35 50.19C82.91 45.2 83 38.03 83 37.72V29.17C83 28.89 82.88 28.62 82.68 28.43C82.47 28.25 82.19 28.14 81.92 28.17ZM49.42 79.68C35.96 79.68 25 68.73 25 55.26C25 41.79 35.96 30.84 49.42 30.84C51.89 30.84 54.32 31.21 56.65 31.93V37.72C56.65 37.85 56.67 40.89 58.71 44.4C58.93 44.8 59.2 45.21 59.57 45.73C60.23 46.65 60.98 47.5 61.83 48.28C61.79 48.26 61.75 48.24 61.71 48.23C61.24 48.08 60.5 48.02 59.63 48.61C58.82 49.16 58.09 50.16 57.56 51.19C57.02 52.23 56.68 53.3 56.65 54.01C56.56 55.69 58.06 57.33 59.52 58.02C60.11 58.3 60.71 58.44 61.27 58.44C62.09 58.44 62.84 58.15 63.46 57.58C64.57 56.56 64.94 54.72 64.48 52.53C64.26 51.49 63.81 50.28 63.16 49.4C64.95 50.77 67.06 51.89 69.48 52.75C69.6961 52.8304 69.9339 52.8304 70.15 52.75C70.57 52.6 70.98 52.45 71.38 52.28C71.39 52.28 71.41 52.27 71.43 52.26C71.74 52.13 72.05 52 72.35 51.85C72.48 51.8 72.6 51.74 72.72 51.68C72.99 51.55 73.26 51.42 73.52 51.28C73.74 52.59 73.84 53.93 73.84 55.26C73.84 68.73 62.89 79.68 49.42 79.68ZM81 37.72C81 37.99 80.87 44.47 73.71 48.87H73.7C72.56 49.58 71.25 50.21 69.82 50.74C66.05 49.35 63.15 47.27 61.19 44.56C60.87 44.11 60.64 43.75 60.44 43.4C58.69 40.38 58.65 37.74 58.65 37.72V30.24C61.63 30.37 64.3 29.89 66.63 28.84C68.14 28.16 69.18 27.36 69.82 26.77C70.28 27.2 70.95 27.73 71.85 28.25C72.53 28.65 73.26 28.98 73.99 29.24C76.05 30.01 78.41 30.34 81 30.24V37.72Z" fill="#4C545F"/>
</svg>
