<svg width="25" height="24" viewBox="0 0 25 24" fill="none" xmlns="http://www.w3.org/2000/svg">
<path d="M3.94875 19.3612H4.0725L7.36875 19.0575C7.83 19.0125 8.2575 18.81 8.58375 18.4837L21.0263 6.04125C21.6113 5.45625 21.9375 4.68 21.9375 3.85875C21.9375 3.0375 21.6113 2.26125 21.0263 1.67625L20.2275 0.8775C19.0575 -0.2925 17.0213 -0.2925 15.8513 0.8775L14.265 2.46375L3.42 13.3088C3.09375 13.635 2.89125 14.0625 2.8575 14.5238L2.55375 17.82C2.52 18.2362 2.66625 18.6413 2.95875 18.945C3.22875 19.215 3.5775 19.3612 3.94875 19.3612ZM18.045 1.65375C18.405 1.65375 18.765 1.78875 19.035 2.07L19.8338 2.86875C19.9652 2.99795 20.0696 3.15204 20.1408 3.32201C20.2121 3.49198 20.2488 3.67444 20.2488 3.85875C20.2488 4.04306 20.2121 4.22552 20.1408 4.39549C20.0696 4.56546 19.9652 4.71954 19.8338 4.84875L18.8438 5.83875L16.065 3.06L17.055 2.07C17.325 1.8 17.685 1.65375 18.045 1.65375ZM4.53375 14.6812C4.53375 14.6137 4.5675 14.5575 4.6125 14.5125L14.8613 4.2525L17.64 7.03125L7.39125 17.28C7.39125 17.28 7.27875 17.3587 7.2225 17.3587L4.26375 17.6287L4.53375 14.67V14.6812ZM24.1875 22.95C24.1875 23.4112 23.805 23.7937 23.3438 23.7937H0.84375C0.3825 23.7937 0 23.4112 0 22.95C0 22.4888 0.3825 22.1062 0.84375 22.1062H23.3438C23.805 22.1062 24.1875 22.4888 24.1875 22.95Z" fill="#4C4C4C"/>
</svg>
