<svg width="14" height="21" viewBox="0 0 14 21" fill="none" xmlns="http://www.w3.org/2000/svg">
<path d="M8.38204 0.000366211C8.32859 0.00285352 8.27644 0.0176336 8.22964 0.0435571C8.18284 0.0694806 8.14265 0.105849 8.1122 0.149835L0.0633936 11.6973C0.0266171 11.7498 0.00495078 11.8114 0.000752386 11.8754C-0.003446 11.9393 0.00998444 12.0032 0.0395821 12.0601C0.0691798 12.117 0.113811 12.1647 0.168618 12.1979C0.223425 12.2312 0.286309 12.2488 0.350426 12.2488H5.91911L5.25114 20.6217C5.22468 20.9749 5.68102 21.1376 5.88605 20.8492L13.9362 9.3018C13.973 9.24927 13.9946 9.18767 13.9988 9.12369C14.003 9.05971 13.9896 8.99581 13.96 8.93893C13.9304 8.88206 13.8858 8.83439 13.8309 8.80111C13.7761 8.76784 13.7133 8.75023 13.6491 8.75022H8.08045L8.74843 0.377344C8.75204 0.327877 8.74512 0.278206 8.72811 0.231614C8.7111 0.185022 8.6844 0.14257 8.64977 0.107064C8.61514 0.0715569 8.57337 0.0438041 8.52721 0.0256393C8.48106 0.00747442 8.43158 -0.00201156 8.38204 0.000366211Z" fill="#243D4D"/>
</svg>
