<svg width="20" height="17" viewBox="0 0 20 17" fill="none" xmlns="http://www.w3.org/2000/svg">
<path fill-rule="evenodd" clip-rule="evenodd" d="M2.6225 2.07347C2.61563 2.35678 2.66549 2.6386 2.76916 2.90236C2.87283 3.16611 3.02821 3.40646 3.22616 3.60927C3.42411 3.81208 3.66062 3.97324 3.92178 4.08328C4.18295 4.19331 4.46348 4.25 4.74688 4.25C5.03027 4.25 5.3108 4.19331 5.57197 4.08328C5.83313 3.97324 6.06964 3.81208 6.26759 3.60927C6.46553 3.40646 6.62092 3.16611 6.72459 2.90236C6.82826 2.6386 6.87812 2.35678 6.87125 2.07347C6.8578 1.51897 6.62808 0.991707 6.23114 0.604287C5.83421 0.216868 5.30154 0 4.74688 0C4.19221 0 3.65954 0.216868 3.26261 0.604287C2.86567 0.991707 2.63595 1.51897 2.6225 2.07347ZM13.115 2.07347C13.1052 2.35849 13.1529 2.64257 13.2552 2.90877C13.3576 3.17498 13.5124 3.41786 13.7106 3.62295C13.9088 3.82804 14.1462 3.99115 14.4087 4.10254C14.6713 4.21393 14.9536 4.27134 15.2388 4.27134C15.5239 4.27134 15.8062 4.21393 16.0688 4.10254C16.3313 3.99115 16.5687 3.82804 16.7669 3.62295C16.9651 3.41786 17.1199 3.17498 17.2223 2.90877C17.3246 2.64257 17.3723 2.35849 17.3625 2.07347C17.3436 1.52282 17.1116 1.00104 16.7154 0.618191C16.3191 0.235338 15.7897 0.0213414 15.2388 0.0213414C14.6878 0.0213414 14.1584 0.235338 13.7621 0.618191C13.3659 1.00104 13.1339 1.52282 13.115 2.07347ZM7.86875 7.31847C7.86179 7.60178 7.91158 7.88362 8.01517 8.1474C8.11876 8.41118 8.27407 8.65158 8.47196 8.85445C8.66985 9.05731 8.90631 9.21854 9.16744 9.32866C9.42857 9.43877 9.70909 9.49554 9.99249 9.49562C10.2759 9.49571 10.5564 9.4391 10.8176 9.32914C11.0788 9.21918 11.3154 9.05809 11.5134 8.85534C11.7114 8.65259 11.8668 8.41229 11.9706 8.14856C12.0743 7.88484 12.1243 7.60303 12.1175 7.31972C12.104 6.76522 11.8743 6.23796 11.4774 5.85054C11.0805 5.46312 10.5478 5.24625 9.99312 5.24625C9.43847 5.24625 8.90579 5.46312 8.50885 5.85054C8.11192 6.23796 7.8822 6.76522 7.86875 7.31972V7.31847ZM5.45625 16.656H14.5438C14.5838 16.656 14.6362 16.6435 14.6625 16.6047C14.7012 16.5647 14.7013 16.526 14.7013 16.4735C14.3612 14.1522 12.3412 12.3947 9.99375 12.3947C8.85254 12.4001 7.75112 12.8147 6.8896 13.5631C6.02807 14.3116 5.46361 15.3442 5.29875 16.4735C5.29875 16.526 5.31125 16.5647 5.3375 16.6047C5.37398 16.6285 5.41409 16.6463 5.45625 16.6572V16.656ZM0.15625 16.656H4.14375C4.2225 16.656 4.30125 16.591 4.30125 16.5122C4.59 13.876 6.7275 11.7385 9.36375 11.4497C9.4425 11.4497 9.50875 11.371 9.50875 11.2922V10.5322C9.50954 10.4946 9.49669 10.4579 9.47257 10.4289C9.44845 10.4 9.41469 10.3807 9.3775 10.3747C8.74954 10.2455 8.17686 9.92539 7.73784 9.45818C7.29882 8.99097 7.01492 8.39949 6.925 7.76472C6.91983 7.73927 6.90877 7.71538 6.89271 7.69498C6.87664 7.67457 6.85602 7.65822 6.8325 7.64722C6.18421 7.32689 5.47061 7.1609 4.7475 7.16222C3.48899 7.1642 2.2826 7.66502 1.3927 8.55492C0.502802 9.44482 0.00198346 10.6512 0 11.9097V16.4997C0 16.5785 0.0649999 16.6572 0.1575 16.6572L0.15625 16.656ZM15.8562 16.656H19.83L19.8425 16.6697C19.8841 16.6691 19.9238 16.6523 19.9532 16.6229C19.9826 16.5935 19.9994 16.5538 20 16.5122V11.9235C20 9.31347 17.875 7.17597 15.2525 7.17597C14.5294 7.17465 13.8158 7.34064 13.1675 7.66097C13.1413 7.66802 13.1181 7.68343 13.1014 7.70486C13.0847 7.72628 13.0754 7.75256 13.075 7.77972C12.9825 8.41201 12.6974 9.00044 12.2586 9.46498C11.8198 9.92952 11.2485 10.2476 10.6225 10.376C10.5853 10.382 10.5515 10.4012 10.5274 10.4302C10.5033 10.4591 10.4905 10.4958 10.4912 10.5335V11.2935C10.4912 11.3722 10.5575 11.451 10.6362 11.451C11.9278 11.5992 13.1311 12.1802 14.0503 13.0994C14.9695 14.0186 15.5505 15.222 15.6987 16.5135C15.6987 16.5922 15.7775 16.6585 15.8562 16.6585V16.656Z" fill="#243D4D"/>
</svg>
