<svg width="20" height="19" viewBox="0 0 20 19" fill="none" xmlns="http://www.w3.org/2000/svg">
<path d="M18.7165 1.48875C16.1494 -1.0745 12.1493 -0.265094 10 3.43676C7.85069 -0.26579 3.85063 -1.0745 1.28345 1.48875C-1.20158 3.96918 -0.942291 12.9249 10 18.0952C20.9423 12.9249 21.2016 3.96918 18.7165 1.48875ZM10.42 5.98957C10.6193 5.23584 11.2322 4.74796 11.7893 4.89968C12.3465 5.05141 12.6365 5.78496 12.4379 6.53799C12.2393 7.29103 11.6257 7.7796 11.0686 7.62788C10.5114 7.47616 10.2207 6.7433 10.42 5.98957ZM8.21069 4.89968C8.76784 4.74796 9.38071 5.23653 9.57999 5.98957C9.77928 6.7433 9.48856 7.47685 8.93141 7.62788C8.37426 7.7789 7.7614 7.29103 7.56211 6.53799C7.36282 5.78496 7.65425 5.05071 8.21069 4.89968ZM5.41994 8.6259C5.22065 7.87216 5.51137 7.13861 6.06852 6.98759C6.62567 6.83656 7.23853 7.32444 7.43782 8.07747C7.63711 8.83121 7.34639 9.56476 6.78924 9.71578C6.23209 9.86681 5.61851 9.37963 5.41994 8.6259ZM11.905 13.2235C11.4064 13.2235 10.9072 12.9562 10.5457 12.7008C10.3876 12.5876 10.1966 12.5265 10.0004 12.5265C9.80415 12.5265 9.61308 12.5876 9.45499 12.7008C9.09284 12.9562 8.59427 13.2235 8.09497 13.2235C7.54854 13.2235 7.14282 12.8219 7.14282 12.2491C7.14282 10.3004 8.64212 8.35169 10 8.35169C11.3579 8.35169 12.8572 10.3004 12.8572 12.2491C12.8572 12.8219 12.4515 13.2235 11.905 13.2235ZM14.5801 8.6259C14.3808 9.37963 13.7679 9.8675 13.2108 9.71578C12.6536 9.56406 12.3636 8.83051 12.5622 8.07747C12.7615 7.32374 13.3743 6.83587 13.9315 6.98759C14.4886 7.13931 14.7794 7.87216 14.5801 8.6259Z" fill="url(#paint0_linear_289_1895)"/>
<defs>
<linearGradient id="paint0_linear_289_1895" x1="-2.89018" y1="18.5017" x2="19.7457" y2="-3.7287" gradientUnits="userSpaceOnUse">
<stop offset="1" stop-color="#131F38"/>
</linearGradient>
</defs>
</svg>
