<svg width="24" height="24" viewBox="0 0 24 24" fill="none" xmlns="http://www.w3.org/2000/svg">
<path fill-rule="evenodd" clip-rule="evenodd" d="M15.2 7C15.2 8.06087 14.7786 9.07828 14.0284 9.82843C13.2783 10.5786 12.2609 11 11.2 11C10.1391 11 9.12172 10.5786 8.37157 9.82843C7.62143 9.07828 7.2 8.06087 7.2 7C7.2 5.93913 7.62143 4.92172 8.37157 4.17157C9.12172 3.42143 10.1391 3 11.2 3C12.2609 3 13.2783 3.42143 14.0284 4.17157C14.7786 4.92172 15.2 5.93913 15.2 7ZM9.6 12.6C8.11479 12.6 6.69041 13.19 5.6402 14.2402C4.59 15.2904 4 16.7148 4 18.2C4 18.8365 4.25286 19.447 4.70294 19.8971C5.15303 20.3471 5.76348 20.6 6.4 20.6H12.328C12.6728 20.6 12.8696 20.1776 12.6904 19.8816C12.2374 19.1332 11.9986 18.2748 12 17.4C11.9994 16.6279 12.1853 15.867 12.5418 15.1822C12.8984 14.4973 13.4151 13.9087 14.048 13.4664C14.3392 13.2624 14.3144 12.7952 13.9672 12.7224C13.5912 12.6424 13.2 12.6 12.8 12.6H9.6ZM16.8 14.2C17.0122 14.2 17.2157 14.2843 17.3657 14.4343C17.5157 14.5843 17.6 14.7878 17.6 15V16.6H19.2C19.4122 16.6 19.6157 16.6843 19.7657 16.8343C19.9157 16.9843 20 17.1878 20 17.4C20 17.6122 19.9157 17.8157 19.7657 17.9657C19.6157 18.1157 19.4122 18.2 19.2 18.2H17.6V19.8C17.6 20.0122 17.5157 20.2157 17.3657 20.3657C17.2157 20.5157 17.0122 20.6 16.8 20.6C16.5878 20.6 16.3843 20.5157 16.2343 20.3657C16.0843 20.2157 16 20.0122 16 19.8V18.2H14.4C14.1878 18.2 13.9843 18.1157 13.8343 17.9657C13.6843 17.8157 13.6 17.6122 13.6 17.4C13.6 17.1878 13.6843 16.9843 13.8343 16.8343C13.9843 16.6843 14.1878 16.6 14.4 16.6H16V15C16 14.7878 16.0843 14.5843 16.2343 14.4343C16.3843 14.2843 16.5878 14.2 16.8 14.2Z" fill="url(#paint0_linear_289_1890)"/>
<defs>
<linearGradient id="paint0_linear_289_1890" x1="12" y1="3" x2="12" y2="20.6" gradientUnits="userSpaceOnUse">
<stop stop-color="#131F38"/>
</linearGradient>
</defs>
</svg>
