<svg width="20" height="14" viewBox="0 0 20 14" fill="none" xmlns="http://www.w3.org/2000/svg">
<path d="M18.7677 5.23189C18.7424 5.07512 18.6577 4.932 18.529 4.82852C18.4003 4.72504 18.2361 4.66805 18.0663 4.66791L1.93373 4.66724C1.76386 4.66739 1.59968 4.72437 1.47099 4.82785C1.34229 4.93133 1.25761 5.07445 1.23232 5.23123L0.00877148 12.5624C-0.0073384 12.6573 -0.00120632 12.7544 0.0267452 12.8469C0.0546966 12.9393 0.103803 13.0251 0.170679 13.0981C0.237555 13.1712 0.32061 13.2299 0.41412 13.2701C0.50763 13.3103 0.60937 13.3311 0.712329 13.3311L19.2884 13.3317C19.3913 13.3317 19.4929 13.3108 19.5864 13.2705C19.6798 13.2303 19.7628 13.1716 19.8296 13.0985C19.8964 13.0255 19.9454 12.9398 19.9733 12.8474C20.0012 12.7549 20.0073 12.6579 19.9912 12.5631L18.7677 5.23189ZM16.4284 9.9998C16.4284 10.3534 16.2779 10.6925 16.01 10.9426C15.7421 11.1926 15.3788 11.3331 14.9999 11.3331C14.621 11.3331 14.2577 11.1926 13.9898 10.9426C13.7219 10.6925 13.5714 10.3534 13.5714 9.9998H6.42864C6.42864 10.3534 6.27814 10.6925 6.01023 10.9426C5.74233 11.1926 5.37897 11.3331 5.0001 11.3331C4.62123 11.3331 4.25787 11.1926 3.98997 10.9426C3.72206 10.6925 3.57156 10.3534 3.57156 9.9998C3.57156 9.59914 3.76441 9.24448 4.0644 8.99982C3.91018 8.87591 3.78634 8.72247 3.7013 8.54993C3.61626 8.37738 3.57201 8.18977 3.57156 7.99984C3.57156 7.64622 3.72206 7.30709 3.98997 7.05705C4.25787 6.80701 4.62123 6.66653 5.0001 6.66653C5.37897 6.66653 5.74233 6.80701 6.01023 7.05705C6.27814 7.30709 6.42864 7.64622 6.42864 7.99984H13.5714C13.5714 7.64622 13.7219 7.30709 13.9898 7.05705C14.2577 6.80701 14.621 6.66653 14.9999 6.66653C15.3788 6.66653 15.7421 6.80701 16.01 7.05705C16.2779 7.30709 16.4284 7.64622 16.4284 7.99984C16.4284 8.4005 16.2356 8.75516 15.9356 8.99982C16.2356 9.24448 16.4284 9.59914 16.4284 9.9998ZM17.1427 2.96261V3.66659H2.85729V2.96261C2.85729 2.14462 3.56799 1.4813 4.4444 1.4813C4.81868 1.4813 5.15867 1.6073 5.43009 1.80996C5.58877 1.491 5.84171 1.22095 6.15916 1.03153C6.47662 0.842106 6.84541 0.741195 7.2222 0.740652C7.69076 0.740652 8.11575 0.898649 8.45503 1.15198C8.61574 0.493324 9.24502 0 10 0C10.755 0 11.3843 0.493324 11.545 1.15198C11.8935 0.887413 12.3286 0.742249 12.7778 0.740652C13.5728 0.740652 14.2535 1.17998 14.5699 1.80996C14.8486 1.5985 15.1965 1.4825 15.5556 1.4813C16.432 1.4813 17.1427 2.14462 17.1427 2.96261Z" fill="#131F38"/>
</svg>
