<svg width="51" height="51" viewBox="0 0 51 51" fill="none" xmlns="http://www.w3.org/2000/svg">
<rect width="51" height="51" rx="5" fill="url(#paint0_linear_171_4)"/>
<g clip-path="url(#clip0_171_4)">
<path d="M13.7188 19.1562C13.7188 16.1534 16.1534 13.7188 19.1562 13.7188H25.5C25.7404 13.7188 25.9709 13.6233 26.1408 13.4533C26.3108 13.2834 26.4062 13.0529 26.4062 12.8125C26.4062 12.5721 26.3108 12.3416 26.1408 12.1717C25.9709 12.0017 25.7404 11.9062 25.5 11.9062H19.1562C15.152 11.9062 11.9062 15.152 11.9062 19.1562V21.875C11.9062 22.1154 12.0017 22.3459 12.1717 22.5158C12.3416 22.6858 12.5721 22.7812 12.8125 22.7812C13.0529 22.7812 13.2834 22.6858 13.4533 22.5158C13.6233 22.3459 13.7188 22.1154 13.7188 21.875V19.1562Z" fill="white"/>
<path fill-rule="evenodd" clip-rule="evenodd" d="M13.7188 26.4062C13.7188 26.1659 13.6233 25.9354 13.4533 25.7654C13.2834 25.5955 13.0529 25.5 12.8125 25.5C12.5721 25.5 12.3416 25.5955 12.1717 25.7654C12.0017 25.9354 11.9062 26.1659 11.9062 26.4062V31.8438C11.9062 35.848 15.152 39.0938 19.1562 39.0938H31.8438C35.848 39.0938 39.0938 35.848 39.0938 31.8438V25.5C39.0938 25.2596 38.9983 25.0291 38.8283 24.8592C38.6584 24.6892 38.4279 24.5938 38.1875 24.5938C37.9471 24.5938 37.7166 24.6892 37.5467 24.8592C37.3767 25.0291 37.2812 25.2596 37.2812 25.5V31.1826C35.2046 27.9355 30.4336 27.9759 28.3624 31.1047L26.0202 28.337C23.2439 25.0555 18.0765 25.4275 15.7981 29.0724L13.7432 32.3608C13.727 32.1889 13.7188 32.0164 13.7188 31.8438V26.4062ZM35.9772 32.5583L36.7583 34.1733C36.431 34.8621 35.9628 35.4746 35.384 35.9711C34.8051 36.4677 34.1286 36.8373 33.398 37.056L29.6094 32.5783C30.8532 29.9325 34.6726 29.8631 35.9772 32.5583ZM14.4741 34.6101C14.9548 35.4241 15.6396 36.0986 16.4607 36.5671C17.2818 37.0355 18.2109 37.2817 19.1562 37.2812H31.2139L24.6372 29.5079C22.6539 27.1639 18.9628 27.4294 17.3356 30.0335L14.4873 34.5897L14.4741 34.6101Z" fill="white"/>
<path d="M28.2188 16.8906C27.9784 16.8906 27.7479 16.9861 27.5779 17.1561C27.408 17.326 27.3125 17.5565 27.3125 17.7969C27.3125 18.0372 27.408 18.2677 27.5779 18.4377C27.7479 18.6076 27.9784 18.7031 28.2188 18.7031H32.2969V22.7812C32.2969 23.0216 32.3924 23.2521 32.5623 23.4221C32.7323 23.592 32.9628 23.6875 33.2031 23.6875C33.4435 23.6875 33.674 23.592 33.8439 23.4221C34.0139 23.2521 34.1094 23.0216 34.1094 22.7812V18.7031H38.1875C38.4279 18.7031 38.6584 18.6076 38.8283 18.4377C38.9983 18.2677 39.0938 18.0372 39.0938 17.7969C39.0938 17.5565 38.9983 17.326 38.8283 17.1561C38.6584 16.9861 38.4279 16.8906 38.1875 16.8906H34.1094V12.8125C34.1094 12.5721 34.0139 12.3416 33.8439 12.1717C33.674 12.0017 33.4435 11.9062 33.2031 11.9062C32.9628 11.9062 32.7323 12.0017 32.5623 12.1717C32.3924 12.3416 32.2969 12.5721 32.2969 12.8125V16.8906H28.2188Z" fill="white"/>
</g>
<defs>
<linearGradient id="paint0_linear_171_4" x1="51" y1="41" x2="0" y2="0" gradientUnits="userSpaceOnUse">
<stop stop-color="#05BD74"/>
<stop offset="1" stop-color="#01C65B"/>
</linearGradient>
<clipPath id="clip0_171_4">
<rect width="29" height="29" fill="white" transform="translate(11 11)"/>
</clipPath>
</defs>
</svg>
