<svg width="105" height="105" viewBox="0 0 105 105" fill="none" xmlns="http://www.w3.org/2000/svg">
<circle cx="52.5" cy="52.5" r="52.5" fill="#E4EDFD"/>
<path d="M79.1832 69.4043H27.8167C27.0691 69.4043 26.4609 70.0125 26.4609 70.76C26.4609 71.5076 27.0691 72.1158 27.8167 72.1158H79.1705C79.9181 72.1158 80.5262 71.5076 80.5262 70.76C80.5262 70.0125 79.9307 69.4043 79.1832 69.4043ZM34.2027 47.0154C35.5711 47.0154 36.8508 46.6099 37.9151 45.9004L45.5428 53.5281C44.8333 54.5924 44.4151 55.8721 44.4151 57.2532C44.4151 60.9784 47.4434 64.0066 51.1685 64.0066C54.8937 64.0066 57.922 60.9784 57.922 57.2532C57.922 55.8848 57.5165 54.6177 56.8069 53.5534L69.072 41.2883C70.1364 41.9852 71.4161 42.4033 72.7845 42.4033C76.5097 42.4033 79.5379 39.375 79.5379 35.6499C79.5379 31.9247 76.5097 28.8965 72.7845 28.8965C69.0594 28.8965 66.0311 31.9247 66.0311 35.6499C66.0311 37.031 66.4492 38.3234 67.1588 39.3877L54.8937 51.6401C53.8167 50.9306 52.537 50.5125 51.1559 50.5125C49.7748 50.5125 48.4951 50.9306 47.4307 51.6401L39.803 44.0125C40.5126 42.9355 40.9307 41.6557 40.9307 40.2747C40.9307 36.5495 37.9025 33.5212 34.1773 33.5212C30.4522 33.5212 27.4239 36.5495 27.4239 40.2747C27.4492 43.9871 30.4775 47.0154 34.2027 47.0154ZM72.7972 31.5826C75.0272 31.5826 76.8518 33.3945 76.8518 35.6372C76.8518 37.8672 75.0272 39.6918 72.7972 39.6918C71.7709 39.6918 70.8333 39.3117 70.1237 38.6782L69.9717 38.4881C69.9083 38.4247 69.845 38.3741 69.7689 38.3234C69.1354 37.6012 68.7426 36.6635 68.7426 35.6372C68.7426 33.3945 70.5672 31.5826 72.7972 31.5826ZM55.2358 57.2532C55.2358 59.4832 53.4112 61.3078 51.1812 61.3078C48.9512 61.3078 47.1266 59.4959 47.1266 57.2532C47.1266 56.2015 47.5321 55.2259 48.2036 54.5037C48.2416 54.4657 48.2923 54.4277 48.3303 54.3897C48.3683 54.3517 48.4064 54.3136 48.4444 54.263C49.1666 53.5914 50.1296 53.186 51.1939 53.186C53.4112 53.1986 55.2358 55.0105 55.2358 57.2532ZM34.2027 36.2074C36.4327 36.2074 38.2572 38.0193 38.2572 40.262C38.2572 42.5047 36.4327 44.3166 34.2027 44.3166C31.9726 44.3166 30.1481 42.5047 30.1481 40.262C30.1481 38.0193 31.96 36.2074 34.2027 36.2074Z" fill="#4C545F"/>
</svg>
