<svg width="22" height="22" viewBox="0 0 22 22" fill="none" xmlns="http://www.w3.org/2000/svg">
<path d="M15.2292 13.7413C14.3942 11.4926 12.9035 9.8931 11.0316 9.23734C9.15961 8.58158 6.9966 8.90119 4.94105 10.1373C3.09337 11.2483 1.6264 12.9504 1.0169 14.6903C0.720821 15.5355 0.754081 16.27 1.1157 16.8733C1.47261 17.4689 2.08799 17.8436 2.82994 18.1035C3.61942 18.38 4.55227 18.5266 5.46884 18.6705C6.26977 18.7963 7.02628 18.9151 7.57421 19.1071C8.04714 19.2728 8.67064 19.6299 9.33063 20.008C10.8731 20.8917 12.6214 21.8931 14.0155 21.3748C14.6783 21.1285 15.1624 20.581 15.4542 19.7478C16.0638 18.0079 15.9797 15.7625 15.2292 13.7413ZM18.6912 4.33189C18.4351 3.36818 17.8343 2.65649 17.0428 2.37923C16.2512 2.10195 15.3377 2.28319 14.5362 2.87637C13.7999 3.42134 13.2034 4.26674 12.8565 5.25689C12.5097 6.24704 12.4482 7.27987 12.6835 8.16518C12.9396 9.12885 13.5404 9.84059 14.3319 10.1179C15.1234 10.3951 16.037 10.2139 16.8385 9.6207C17.5748 9.07574 18.1713 8.23033 18.5182 7.24019C18.865 6.25004 18.9265 5.21716 18.6912 4.33189ZM12.2626 2.07988C12.0065 1.11616 11.4057 0.404485 10.6142 0.127208C9.82264 -0.150068 8.90902 0.031157 8.10757 0.624357C7.37129 1.16932 6.77477 2.01473 6.42791 3.00487C6.08106 3.99502 6.01959 5.02786 6.25488 5.91317C6.51098 6.87688 7.11175 7.5886 7.90328 7.86588C8.69481 8.14315 9.60839 7.96191 10.4099 7.36869C11.1462 6.82372 11.7427 5.97836 12.0896 4.98817C12.4364 3.99801 12.4978 2.96513 12.2626 2.07988ZM21.8872 12.2705C21.9277 11.4718 21.6551 10.7856 21.1196 10.3385C20.6887 9.97866 20.1177 9.81404 19.5117 9.87496C18.6766 9.95887 17.8474 10.4458 17.237 11.2108C16.7381 11.836 16.4432 12.5782 16.4066 13.3008C16.3662 14.0995 16.6388 14.7857 17.1743 15.2329C17.3596 15.3876 17.5708 15.5062 17.7995 15.5864C18.1028 15.6926 18.4369 15.7311 18.7823 15.6964C19.6174 15.6125 20.4465 15.1256 21.057 14.3606C21.5558 13.7354 21.8507 12.9932 21.8872 12.2705ZM4.95128 6.90698C4.95165 5.92823 4.6076 5.03041 4.00745 4.44373C3.5719 4.01794 3.02292 3.79026 2.46172 3.8025C1.76422 3.81778 1.12299 4.18383 0.656185 4.83316C0.233846 5.42066 0.00111228 6.18468 0.000795712 6.98444C0.000469687 7.96321 0.344462 8.86106 0.944612 9.44774C1.1929 9.69044 1.478 9.86881 1.78121 9.97502C2.00995 10.0552 2.24903 10.0942 2.49034 10.089C3.18792 10.0737 3.82912 9.70765 4.29592 9.05832C4.71816 8.47084 4.95089 7.70682 4.95128 6.90698Z" fill="#78CD59"/>
</svg>
