<svg width="51" height="51" viewBox="0 0 51 51" fill="none" xmlns="http://www.w3.org/2000/svg">
<rect width="51" height="51" rx="5" fill="url(#paint0_linear_400_6)"/>
<path d="M32.7217 14.8438H26.3281V12.9313C26.3281 12.734 26.2498 12.5448 26.1103 12.4053C25.9708 12.2659 25.7816 12.1875 25.5844 12.1875H24.4156C24.2184 12.1875 24.0292 12.2659 23.8897 12.4053C23.7502 12.5448 23.6719 12.734 23.6719 12.9313V14.8438H17.2783C15.9449 14.8445 14.6664 15.3744 13.7235 16.3173C12.7807 17.2601 12.2507 18.5387 12.25 19.872V22.8683C12.25 26.1645 13.5594 29.3258 15.8903 31.6566C18.2211 33.9874 21.3823 35.2969 24.6786 35.2969H25.5844C25.7816 35.2969 25.9708 35.2185 26.1103 35.079C26.2498 34.9396 26.3281 34.7504 26.3281 34.5531V33.3844C26.3281 33.1871 26.2498 32.9979 26.1103 32.8585C25.9708 32.719 25.7816 32.6406 25.5844 32.6406H24.6786C22.0868 32.6406 19.6012 31.611 17.7685 29.7784C15.9358 27.9457 14.9062 25.4601 14.9062 22.8683V19.872C14.9062 19.2429 15.1562 18.6396 15.601 18.1948C16.0458 17.7499 16.6492 17.5 17.2783 17.5H32.7217C33.3508 17.5 33.9542 17.7499 34.399 18.1948C34.8438 18.6396 35.0938 19.2429 35.0938 19.872V23.0781C35.0921 23.8069 35.0029 24.5328 34.8281 25.2403C34.7818 25.4226 34.8065 25.6157 34.8973 25.7804C34.988 25.9452 35.138 26.0693 35.3169 26.1275L36.4325 26.4914C36.5289 26.5234 36.6308 26.5352 36.7319 26.5262C36.833 26.5171 36.9312 26.4874 37.0204 26.4388C37.1096 26.3903 37.1878 26.3239 37.2503 26.2438C37.3127 26.1638 37.358 26.0717 37.3834 25.9734C37.625 25.0272 37.7481 24.0547 37.75 23.0781V19.872C37.7493 18.5387 37.2193 17.2601 36.2765 16.3173C35.3336 15.3744 34.0551 14.8445 32.7217 14.8438Z" fill="white"/>
<path d="M20.75 26C21.9236 26 22.875 25.0486 22.875 23.875C22.875 22.7014 21.9236 21.75 20.75 21.75C19.5764 21.75 18.625 22.7014 18.625 23.875C18.625 25.0486 19.5764 26 20.75 26Z" fill="white"/>
<path d="M29.25 26C30.4236 26 31.375 25.0486 31.375 23.875C31.375 22.7014 30.4236 21.75 29.25 21.75C28.0764 21.75 27.125 22.7014 27.125 23.875C27.125 25.0486 28.0764 26 29.25 26Z" fill="white"/>
<path d="M37.6787 33.65L40.0853 34.5983C40.1348 34.6179 40.1773 34.6519 40.2073 34.696C40.2372 34.74 40.2533 34.7921 40.2533 34.8453C40.2533 34.8986 40.2372 34.9507 40.2073 34.9947C40.1773 35.0388 40.1348 35.0728 40.0853 35.0924L37.6787 36.0407C37.2527 36.2091 36.8658 36.4631 36.5418 36.7871C36.2179 37.111 35.9639 37.4979 35.7954 37.9239L34.8471 40.3146C34.8276 40.3641 34.7935 40.4066 34.7495 40.4366C34.7054 40.4665 34.6534 40.4826 34.6001 40.4826C34.5468 40.4826 34.4948 40.4665 34.4507 40.4366C34.4067 40.4066 34.3727 40.3641 34.3531 40.3146L33.4048 37.9239C33.2368 37.4977 32.9829 37.1105 32.6589 36.7866C32.3349 36.4626 31.9478 36.2087 31.5215 36.0407L29.1309 35.0924C29.0813 35.0728 29.0388 35.0388 29.0089 34.9947C28.9789 34.9507 28.9629 34.8986 28.9629 34.8453C28.9629 34.7921 28.9789 34.74 29.0089 34.696C29.0388 34.6519 29.0813 34.6179 29.1309 34.5983L31.5215 33.65C31.9478 33.482 32.3349 33.2281 32.6589 32.9041C32.9829 32.5801 33.2368 32.193 33.4048 31.7667L34.3531 29.3761C34.3727 29.3266 34.4067 29.2841 34.4507 29.2541C34.4948 29.2241 34.5468 29.2081 34.6001 29.2081C34.6534 29.2081 34.7054 29.2241 34.7495 29.2541C34.7935 29.2841 34.8276 29.3266 34.8471 29.3761L35.7954 31.7667C35.9639 32.1928 36.2179 32.5797 36.5418 32.9036C36.8658 33.2275 37.2527 33.4816 37.6787 33.65Z" fill="white"/>
<defs>
<linearGradient id="paint0_linear_400_6" x1="51" y1="41" x2="0" y2="0" gradientUnits="userSpaceOnUse">
<stop stop-color="#04B0E0"/>
<stop offset="1" stop-color="#0067CC"/>
</linearGradient>
</defs>
</svg>
