<svg width="51" height="51" viewBox="0 0 51 51" fill="none" xmlns="http://www.w3.org/2000/svg">
<rect width="51" height="51" rx="5" fill="url(#paint0_linear_171_3)"/>
<path d="M26.0002 36.04C23.3602 36.04 21.2452 35.2257 19.7174 33.6186C16.5245 30.2586 16.8224 24.3871 16.9317 22.1757L16.9488 21.8457C16.9638 21.5028 17.2531 21.2393 17.5959 21.2543C17.9388 21.2693 18.2024 21.5586 18.1874 21.9014L18.1702 22.24C18.0652 24.3036 17.7867 29.7914 20.6152 32.7636C21.9009 34.1157 23.7095 34.8014 25.9981 34.8014C28.2867 34.8014 30.0974 34.1157 31.3831 32.7636C34.2095 29.7914 33.931 24.3036 33.826 22.2378L33.8088 21.9014C33.7938 21.5586 34.0574 21.2693 34.4002 21.2543C34.7431 21.2393 35.0324 21.5028 35.0474 21.8457L35.0645 22.1757C35.176 24.3871 35.4738 30.2586 32.2788 33.6186C30.7552 35.2257 28.6424 36.04 26.0002 36.04Z" fill="white"/>
<path d="M16.1188 32.3628C15.3646 32.3392 14.6317 32.1014 14.006 31.6792C13.0888 31.1114 12.4181 29.995 12.1203 28.5335C11.681 26.3907 12.0131 22.9771 14.2631 19.7842C15.6016 17.8906 17.4133 16.3812 19.5174 15.4064C23.6317 13.4778 28.3888 13.4778 32.5031 15.4064C34.6072 16.3812 36.4189 17.8906 37.7574 19.7842C39.9988 22.9771 40.3288 26.3971 39.9003 28.5335C39.6024 29.995 38.9317 31.105 38.0167 31.6792C36.7888 32.44 35.5353 32.5685 34.5753 32.035C33.7417 31.57 33.2446 30.6592 33.2446 29.5942C33.2446 29.2514 33.521 28.975 33.8638 28.975C34.2067 28.975 34.4831 29.2514 34.4831 29.5942C34.4831 30.2114 34.736 30.7064 35.1774 30.9528C35.7324 31.2614 36.5296 31.1414 37.3631 30.625C37.9781 30.2457 38.4603 29.3928 38.6874 28.285C39.0731 26.4014 38.7667 23.3671 36.7588 20.4978C35.5441 18.7796 33.9002 17.4098 31.991 16.525C30.1248 15.6507 28.0893 15.1975 26.0285 15.1975C23.9677 15.1975 21.9321 15.6507 20.066 16.525C18.1559 17.4102 16.5107 18.7799 15.2938 20.4978C13.2796 23.3671 12.9731 26.4014 13.3653 28.285C13.5924 29.3928 14.0746 30.2457 14.6896 30.625C15.5103 31.135 16.286 31.2571 16.8131 30.9635C17.2417 30.7235 17.4903 30.2242 17.4903 29.5942C17.4903 29.2514 17.7688 28.975 18.1096 28.975C18.4503 28.975 18.7288 29.2514 18.7288 29.5942C18.7288 30.6657 18.2381 31.5871 17.4153 32.0457C17.018 32.2622 16.5712 32.3715 16.1188 32.3628Z" fill="white"/>
<path d="M22.4113 21.657C23.127 21.8949 23.4827 22.7284 23.2277 23.5299C22.9727 24.3313 22.1691 24.7791 21.4534 24.5434C20.7377 24.3077 20.382 23.472 20.637 22.6706C20.892 21.8691 21.6934 21.4213 22.4113 21.657ZM29.592 21.657C28.8763 21.8949 28.5098 22.7284 28.7734 23.5299C29.037 24.3313 29.832 24.7791 30.5477 24.5434C31.2634 24.3077 31.6191 23.472 31.3641 22.6706C31.1091 21.8691 30.3077 21.4213 29.592 21.657ZM26.0006 26.3799C24.8863 26.3799 23.982 26.6884 23.982 27.3056C23.982 28.1263 24.8863 28.947 26.0006 28.947C27.1148 28.947 28.0213 28.1263 28.0213 27.3056C28.0213 26.6863 27.117 26.3799 26.0006 26.3799Z" fill="white"/>
<path d="M23.8678 31.9515C22.7599 31.9665 21.7828 31.2358 21.4828 30.1687C21.4056 29.8344 21.6156 29.5022 21.9499 29.4272C22.2842 29.3501 22.6163 29.5601 22.6913 29.8922C22.7556 30.1794 23.2485 30.8929 24.2556 30.6679C25.4128 30.4087 25.3442 28.7972 25.342 28.7822C25.3362 28.6192 25.3947 28.4603 25.505 28.3401C25.6152 28.2198 25.7684 28.1477 25.9313 28.1394C26.2678 28.1308 26.5528 28.3901 26.5742 28.7265C26.6213 29.6501 26.2528 31.4972 24.5192 31.8851C24.3049 31.9322 24.0863 31.9558 23.8678 31.9515Z" fill="white"/>
<path d="M28.1366 31.9514C27.9159 31.9514 27.6952 31.9257 27.4788 31.8764C25.7452 31.4885 25.3766 29.6414 25.4238 28.7178C25.4348 28.556 25.5077 28.4047 25.6275 28.2953C25.7472 28.186 25.9045 28.127 26.0666 28.1307C26.2296 28.139 26.3827 28.2111 26.493 28.3314C26.6032 28.4516 26.6618 28.6105 26.6559 28.7735C26.6559 28.8378 26.5981 30.4021 27.7423 30.6592C28.7495 30.8842 29.2423 30.1685 29.3066 29.8835C29.3247 29.8043 29.3582 29.7293 29.4053 29.6631C29.4524 29.5968 29.512 29.5404 29.5809 29.4972C29.6498 29.454 29.7265 29.4249 29.8066 29.4114C29.8868 29.3978 29.9688 29.4003 30.0481 29.4185C30.2081 29.4553 30.347 29.5539 30.4346 29.6929C30.5221 29.8318 30.5511 29.9997 30.5152 30.1599C30.3716 30.6789 30.0605 31.1359 29.6304 31.4599C29.2002 31.7839 28.6751 31.9567 28.1366 31.9514Z" fill="white"/>
<defs>
<linearGradient id="paint0_linear_171_3" x1="51" y1="41" x2="0" y2="0" gradientUnits="userSpaceOnUse">
<stop stop-color="#E637AF"/>
<stop offset="1" stop-color="#B943F2"/>
</linearGradient>
</defs>
</svg>
