<svg width="34" height="27" viewBox="0 0 34 27" fill="none" xmlns="http://www.w3.org/2000/svg">
<path d="M16.8573 26.496C13.6893 26.496 11.1513 25.5189 9.31788 23.5903C5.48646 19.5583 5.84388 12.5126 5.97503 9.85886L5.9956 9.46286C6.0136 9.05143 6.36074 8.73514 6.77217 8.75314C7.1836 8.77114 7.49988 9.11829 7.48188 9.52971L7.46131 9.936C7.33531 12.4123 7.00103 18.9977 10.3953 22.5643C11.9382 24.1869 14.1085 25.0097 16.8547 25.0097C19.601 25.0097 21.7739 24.1869 23.3167 22.5643C26.7085 18.9977 26.3742 12.4123 26.2482 9.93343L26.2276 9.52971C26.2096 9.11829 26.5259 8.77114 26.9373 8.75314C27.3487 8.73514 27.6959 9.05143 27.7139 9.46286L27.7345 9.85886C27.8682 12.5126 28.2256 19.5583 24.3916 23.5903C22.5633 25.5189 20.0279 26.496 16.8573 26.496Z" fill="#1F2937"/>
<path d="M4.99886 22.0834C4.09371 22.0551 3.21428 21.7697 2.46343 21.2631C1.36285 20.5817 0.557998 19.242 0.200569 17.4883C-0.326574 14.9169 0.0719977 10.8206 2.772 6.98914C4.37822 4.71683 6.55224 2.90544 9.07714 1.73571C14.0143 -0.578571 19.7229 -0.578571 24.66 1.73571C27.1849 2.90544 29.3589 4.71683 30.9651 6.98914C33.6549 10.8206 34.0509 14.9246 33.5366 17.4883C33.1791 19.242 32.3743 20.574 31.2763 21.2631C29.8029 22.176 28.2986 22.3303 27.1466 21.69C26.1463 21.132 25.5497 20.0391 25.5497 18.7611C25.5497 18.3497 25.8814 18.018 26.2929 18.018C26.7043 18.018 27.036 18.3497 27.036 18.7611C27.036 19.5017 27.3394 20.0957 27.8691 20.3914C28.5351 20.7617 29.4917 20.6177 30.492 19.998C31.23 19.5429 31.8086 18.5194 32.0811 17.19C32.544 14.9297 32.1763 11.2886 29.7669 7.84543C28.3092 5.78355 26.3365 4.13978 24.0454 3.078C21.8061 2.02885 19.3634 1.485 16.8904 1.485C14.4175 1.485 11.9748 2.02885 9.73543 3.078C7.44333 4.14032 5.46909 5.78389 4.00886 7.84543C1.59171 11.2886 1.224 14.9297 1.69457 17.19C1.96714 18.5194 2.54571 19.5429 3.28371 19.998C4.26857 20.61 5.19943 20.7566 5.832 20.4043C6.34628 20.1163 6.64457 19.5171 6.64457 18.7611C6.64457 18.3497 6.97886 18.018 7.38771 18.018C7.79657 18.018 8.13086 18.3497 8.13086 18.7611C8.13086 20.0469 7.542 21.1526 6.55457 21.7029C6.07784 21.9627 5.54168 22.0938 4.99886 22.0834Z" fill="#1F2937"/>
<path d="M12.5502 9.23658C13.409 9.522 13.8359 10.5223 13.5299 11.484C13.2239 12.4457 12.2596 12.9831 11.4007 12.7003C10.5419 12.4174 10.115 11.4146 10.421 10.4529C10.727 9.49115 11.6887 8.95372 12.5502 9.23658ZM21.167 9.23658C20.3082 9.522 19.8685 10.5223 20.1847 11.484C20.501 12.4457 21.455 12.9831 22.3139 12.7003C23.1727 12.4174 23.5996 11.4146 23.2936 10.4529C22.9876 9.49115 22.0259 8.95372 21.167 9.23658ZM16.8573 14.904C15.5202 14.904 14.435 15.2743 14.435 16.0149C14.435 16.9997 15.5202 17.9846 16.8573 17.9846C18.1945 17.9846 19.2822 16.9997 19.2822 16.0149C19.2822 15.2717 18.197 14.904 16.8573 14.904Z" fill="#1F2937"/>
<path d="M14.2972 21.5897C12.9677 21.6077 11.7952 20.7309 11.4352 19.4503C11.3426 19.0491 11.5946 18.6506 11.9957 18.5606C12.3969 18.468 12.7955 18.72 12.8855 19.1186C12.9626 19.4631 13.554 20.3194 14.7626 20.0494C16.1512 19.7383 16.0689 17.8046 16.0663 17.7866C16.0593 17.5909 16.1295 17.4003 16.2618 17.256C16.3942 17.1116 16.5779 17.0251 16.7735 17.0151C17.1772 17.0049 17.5192 17.316 17.5449 17.7197C17.6015 18.828 17.1592 21.0446 15.0789 21.51C14.8217 21.5666 14.5595 21.5949 14.2972 21.5897Z" fill="#1F2937"/>
<path d="M19.4202 21.5897C19.1553 21.5897 18.8905 21.5589 18.6308 21.4997C16.5505 21.0343 16.1082 18.8177 16.1648 17.7094C16.178 17.5153 16.2655 17.3337 16.4092 17.2025C16.5529 17.0712 16.7417 17.0004 16.9362 17.0049C17.1317 17.0149 17.3155 17.1014 17.4478 17.2457C17.5801 17.39 17.6504 17.5806 17.6433 17.7763C17.6433 17.8534 17.5739 19.7306 18.9471 20.0392C20.1556 20.3092 20.7471 19.4503 20.8242 19.1083C20.8459 19.0132 20.8861 18.9233 20.9426 18.8438C20.9991 18.7642 21.0707 18.6966 21.1533 18.6448C21.236 18.5929 21.328 18.5579 21.4242 18.5417C21.5204 18.5255 21.6189 18.5284 21.7139 18.5503C21.9059 18.5945 22.0727 18.7128 22.1777 18.8795C22.2828 19.0462 22.3176 19.2477 22.2745 19.44C22.1022 20.0628 21.7289 20.6112 21.2127 21C20.6965 21.3887 20.0664 21.5961 19.4202 21.5897Z" fill="#1F2937"/>
</svg>
