<svg width="26" height="26" viewBox="0 0 26 26" fill="none" xmlns="http://www.w3.org/2000/svg">
<path d="M13 0C5.81953 0 0 5.81953 0 13C0 20.1805 5.81953 26 13 26C20.1805 26 26 20.1805 26 13C26 5.81953 20.1805 0 13 0ZM14.4727 21.9324C14.0867 22.3285 13.5535 22.557 13 22.557H12.9645C11.7863 22.557 10.8316 21.6023 10.8316 20.4242C10.8316 19.2461 11.7863 18.2914 12.9645 18.2914H13C14.1781 18.3117 15.1176 19.2816 15.0973 20.4598C15.0871 21.0133 14.8637 21.5414 14.4727 21.9324ZM17.8598 10.7199C17.5094 11.3852 16.9508 12.0859 16.2043 12.802C15.2953 13.6754 14.9906 14.1324 14.8992 14.366C14.8078 14.5996 14.6859 15.1023 14.6707 16.118C14.6656 16.3668 14.4625 16.5648 14.2137 16.5648H11.8168C11.5629 16.5648 11.3598 16.3617 11.3598 16.1078V16.1027C11.3598 15.5695 11.4004 15.0414 11.4816 14.5133C11.5527 14.0664 11.6594 13.6957 11.7965 13.4012C12.0352 12.8984 12.4262 12.3805 13 11.8168C13.0965 11.7203 13.198 11.6289 13.3047 11.5324C13.9445 10.9535 14.4422 10.4102 14.7824 9.92266C15.0922 9.47578 15.2395 9.01875 15.2395 8.51602C15.2395 7.9168 15.0465 7.43437 14.6555 7.04336C14.2645 6.65234 13.7262 6.46445 13.0051 6.45937H12.9695C12.2637 6.45937 11.7457 6.64219 11.3852 7.02305C10.9789 7.44961 10.6793 7.89648 10.4965 8.35352C10.4 8.58711 10.1359 8.69883 9.90234 8.60742C9.89727 8.60742 9.89219 8.60234 9.88711 8.60234L7.87109 7.71875C7.64766 7.62227 7.54102 7.36836 7.62734 7.13984C7.81523 6.63203 8.07422 6.15469 8.39414 5.72305C8.72422 5.27617 9.11523 4.875 9.55703 4.53477C10.4711 3.80859 11.6188 3.44297 12.9645 3.44297H13C14.7012 3.44805 16.0418 3.94062 16.9812 4.91055C17.9207 5.88047 18.4031 7.06367 18.4031 8.42461C18.4031 9.2625 18.2203 10.0344 17.8598 10.7199Z" fill="url(#paint0_linear_356_385)"/>
<defs>
<linearGradient id="paint0_linear_356_385" x1="13.0798" y1="-0.455" x2="12.9239" y2="25.8385" gradientUnits="userSpaceOnUse">
<stop stop-color="#0FC8FF"/>
<stop offset="1" stop-color="#4760FF"/>
</linearGradient>
</defs>
</svg>
