<svg width="51" height="51" viewBox="0 0 51 51" fill="none" xmlns="http://www.w3.org/2000/svg">
<rect width="51" height="51" rx="5" fill="url(#paint0_linear_292_2600)"/>
<path d="M15.4375 35.1875H12.7188C11.7192 35.1875 10.9062 34.3746 10.9062 33.375V21.5937C10.9062 20.5941 11.7192 19.7812 12.7188 19.7812H15.4375C16.4371 19.7812 17.25 20.5941 17.25 21.5937V33.375C17.25 34.3746 16.4371 35.1875 15.4375 35.1875ZM12.7188 21.5937V33.375H15.4389L15.4375 21.5937H12.7188ZM30.95 35.1875H21.7812C20.2821 35.1875 19.0625 33.9679 19.0625 32.4687V20.6875C19.0626 20.4471 19.1581 20.2167 19.328 20.0467L29.2968 10.078C29.3809 9.99379 29.4808 9.92699 29.5907 9.88141C29.7006 9.83584 29.8185 9.81238 29.9375 9.81238C30.0565 9.81238 30.1744 9.83584 30.2843 9.88141C30.3942 9.92699 30.4941 9.99379 30.5782 10.078L31.6399 11.1397C33.4069 12.9066 33.4069 15.781 31.6399 17.548L30.3127 18.875H35.375C36.8742 18.875 38.0938 20.0946 38.0938 21.5937V22.2297C38.0938 23.1081 37.9531 23.9762 37.6751 24.8091L35.2484 32.0897C34.9483 32.9922 34.3715 33.7773 33.5999 34.3334C32.8283 34.8895 31.9011 35.1883 30.95 35.1875ZM20.875 21.0627V32.4687C20.875 32.9683 21.2817 33.375 21.7812 33.375H30.95C32.1218 33.375 33.1585 32.628 33.529 31.516L35.9557 24.2354C36.1716 23.5887 36.2816 22.9113 36.2815 22.2295V21.5937C36.2815 21.0941 35.8748 20.6875 35.3752 20.6875H28.125C27.9458 20.6874 27.7706 20.6343 27.6216 20.5347C27.4726 20.4351 27.3565 20.2936 27.2879 20.128C27.2193 19.9624 27.2014 19.7802 27.2363 19.6045C27.2713 19.4287 27.3576 19.2672 27.4843 19.1405L30.3585 16.2663C31.4188 15.206 31.4188 13.4812 30.3585 12.4209L29.9375 12.0002L20.875 21.0627Z" fill="white"/>
<defs>
<linearGradient id="paint0_linear_292_2600" x1="51" y1="41" x2="0" y2="0" gradientUnits="userSpaceOnUse">
<stop stop-color="#05BD74"/>
<stop offset="1" stop-color="#01C65B"/>
</linearGradient>
</defs>
</svg>
