<svg width="51" height="51" viewBox="0 0 51 51" fill="none" xmlns="http://www.w3.org/2000/svg">
<rect width="51" height="51" rx="5" fill="url(#paint0_linear_245_200)"/>
<g clip-path="url(#clip0_245_200)">
<g clip-path="url(#clip1_245_200)">
<path d="M12 31.6074H40.3667V10H12V31.6074ZM28.6765 14.9863H30.3386V13.3242H32.0007V14.9863H36.987V16.6484H32.0007V18.3105H30.3386V16.6484H28.6765V14.9863ZM28.6765 19.9727H33.6628V18.3105H35.3249V19.9727H36.987V21.6348H35.3249V23.2969H33.6628V21.6348H28.6765V19.9727ZM28.6765 24.959H30.3386V23.2969H32.0007V24.959H36.987V26.6211H32.0007V28.2832H30.3386V26.6211H28.6765V24.959ZM15.3796 19.9727H17.1258C17.2338 19.4431 17.4451 18.9517 17.734 18.5159L16.4963 17.2782L17.6715 16.103L18.9092 17.3407C19.345 17.0518 19.8364 16.8405 20.366 16.7325V14.9863H22.0281V16.7325C22.5576 16.8405 23.049 17.0518 23.4848 17.3407L24.7225 16.103L25.8977 17.2782L24.66 18.5159C24.9489 18.9517 25.1602 19.4431 25.2682 19.9727H27.0144V21.6348H25.2682C25.1602 22.1643 24.9489 22.6557 24.66 23.0915L25.8977 24.3292L24.7225 25.5044L23.4848 24.2667C23.049 24.5556 22.5576 24.767 22.0281 24.8749V26.6211H20.366V24.8749C19.8364 24.767 19.345 24.5556 18.9092 24.2667L17.6715 25.5044L16.4963 24.3292L17.734 23.0915C17.4451 22.6557 17.2338 22.1643 17.1258 21.6348H15.3796V19.9727Z" fill="white"/>
<path d="M21.1963 23.2969C22.5711 23.2969 23.6895 22.1785 23.6895 20.8037C23.6895 19.4289 22.5711 18.3105 21.1963 18.3105C19.8215 18.3105 18.7031 19.4289 18.7031 20.8037C18.7031 22.1785 19.8215 23.2969 21.1963 23.2969ZM20.3652 19.9727H22.0273V21.6348H20.3652V19.9727ZM33.6621 34.9316H31.1689C30.0869 34.9316 29.1731 34.2348 28.8289 33.2695H23.5364C23.1922 34.2348 22.2783 34.9316 21.1963 34.9316H18.7031V36.5938H33.6621V34.9316Z" fill="white"/>
</g>
</g>
<defs>
<linearGradient id="paint0_linear_245_200" x1="51" y1="41" x2="0" y2="0" gradientUnits="userSpaceOnUse">
<stop stop-color="#E637AF"/>
<stop offset="1" stop-color="#B943F2"/>
</linearGradient>
<clipPath id="clip0_245_200">
<rect width="37" height="37" fill="white" transform="translate(14 14)"/>
</clipPath>
<clipPath id="clip1_245_200">
<rect width="28.3667" height="28.3667" fill="white" transform="translate(10.3008 9.06665)"/>
</clipPath>
</defs>
</svg>
