<svg width="51" height="51" viewBox="0 0 51 51" fill="none" xmlns="http://www.w3.org/2000/svg">
<rect width="51" height="51" rx="5" fill="url(#paint0_linear_399_3)"/>
<g clip-path="url(#clip0_399_3)">
<path d="M39.1932 23.5109C39.1089 23.5312 39.0361 23.5839 38.9906 23.6577C38.9451 23.7315 38.9307 23.8203 38.9504 23.9046C39.1896 24.9198 39.3107 25.9592 39.3113 27.0022C39.3071 30.5311 37.9034 33.9144 35.408 36.4097C32.9126 38.9051 29.5294 40.3089 26.0004 40.3131C23.102 40.3232 20.2813 39.3759 17.9767 37.6181C18.2861 37.1567 18.4097 36.5954 18.3228 36.0467C18.2358 35.498 17.9447 35.0024 17.5078 34.6593C17.0709 34.3162 16.5205 34.1508 15.9668 34.1964C15.4131 34.242 14.8971 34.4952 14.5222 34.9052C14.1473 35.3151 13.9412 35.8517 13.9452 36.4072C13.9492 36.9627 14.163 37.4962 14.5438 37.9008C14.9245 38.3053 15.4441 38.5511 15.9984 38.5887C16.5526 38.6263 17.1007 38.4531 17.5326 38.1037C19.9592 39.9718 22.9381 40.9799 26.0004 40.9693C28.1101 40.9671 30.1919 40.4874 32.0899 39.5664C33.9879 38.6453 35.6528 37.3067 36.96 35.6508C38.2672 33.9949 39.1828 32.0647 39.6381 30.0047C40.0934 27.9448 40.0767 25.8085 39.5892 23.7559C39.5794 23.7137 39.5614 23.6739 39.5361 23.6388C39.5109 23.6036 39.479 23.5738 39.4422 23.551C39.4054 23.5282 39.3644 23.513 39.3217 23.5061C39.279 23.4992 39.2353 23.5008 39.1932 23.5109ZM12.6895 27.0022C12.6896 24.6344 13.3213 22.3096 14.5193 20.2674C15.7173 18.2251 17.4384 16.5393 19.505 15.3839C21.5717 14.2284 23.9091 13.6451 26.2763 13.694C28.6435 13.7429 30.9548 14.4223 32.972 15.6622C32.7638 16.1076 32.7304 16.615 32.8786 17.0838C33.0268 17.5526 33.3456 17.9487 33.7719 18.1936C34.1983 18.4385 34.7011 18.5144 35.1807 18.4062C35.6604 18.2979 36.0818 18.0135 36.3617 17.6093C36.6416 17.205 36.7594 16.7104 36.6919 16.2233C36.6244 15.7363 36.3764 15.2924 35.9971 14.9795C35.6178 14.6667 35.1348 14.5077 34.6438 14.534C34.1528 14.5604 33.6897 14.7702 33.346 15.1218C31.2302 13.8139 28.8035 13.0946 26.3166 13.0385C23.8298 12.9823 21.3731 13.5913 19.2004 14.8024C17.0276 16.0135 15.2178 17.7829 13.9578 19.9276C12.6978 22.0724 12.0334 24.5147 12.0332 27.0022C12.032 27.8548 12.1097 28.7057 12.2651 29.544C12.2784 29.6196 12.318 29.688 12.3768 29.7372C12.4356 29.7864 12.51 29.8133 12.5867 29.8131C12.6065 29.8131 12.6263 29.8109 12.6457 29.8065C12.7313 29.7911 12.8072 29.7423 12.8568 29.671C12.9064 29.5996 12.9257 29.5115 12.9104 29.4259C12.7629 28.6264 12.689 27.8151 12.6895 27.0022Z" fill="white"/>
<path d="M24.0312 24.8344V25.0312H27.9688V24.8344C27.9381 22.1744 24.0619 22.1744 24.0312 24.8344Z" fill="white"/>
<path d="M35.1773 20.1838C31.4848 20.221 27.9323 17.9394 26.5738 16.955C26.407 16.8345 26.2065 16.7697 26.0007 16.7697C25.7949 16.7697 25.5944 16.8345 25.4276 16.955C24.0691 17.9394 20.5079 20.2122 16.8241 20.1838C16.6933 20.1825 16.5635 20.2071 16.4422 20.2561C16.321 20.3052 16.2106 20.3778 16.1175 20.4697C16.0243 20.5616 15.9503 20.671 15.8997 20.7916C15.849 20.9122 15.8227 21.0417 15.8223 21.1725C15.8245 26.2235 16.8351 33.4488 25.5566 37.8631C25.6942 37.9332 25.8463 37.9698 26.0007 37.9698C26.1551 37.9698 26.3072 37.9332 26.4448 37.8631C35.1663 33.4488 36.177 26.2235 36.1791 21.1725C36.1772 20.9086 36.0706 20.6563 35.8827 20.4709C35.6949 20.2855 35.4412 20.1823 35.1773 20.1838ZM29.6101 30.1719C29.6101 30.607 29.4372 31.0243 29.1295 31.332C28.8219 31.6397 28.4046 31.8125 27.9695 31.8125H24.032C23.5968 31.8125 23.1795 31.6397 22.8719 31.332C22.5642 31.0243 22.3913 30.607 22.3913 30.1719V26.6719C22.3915 26.3528 22.4847 26.0407 22.6595 25.7738C22.8344 25.5069 23.0833 25.2967 23.3757 25.1691V24.83C23.4151 21.3191 28.5863 21.3191 28.6257 24.83V25.1691C28.9181 25.2967 29.167 25.5069 29.3419 25.7738C29.5167 26.0407 29.6099 26.3528 29.6101 26.6719V30.1719Z" fill="white"/>
<path d="M26.538 28.0451C26.5331 28.0158 26.5345 27.9857 26.5421 27.9569C26.5496 27.9281 26.5631 27.9012 26.5818 27.878C26.655 27.7721 26.6979 27.6481 26.7058 27.5195C26.7136 27.3909 26.6862 27.2626 26.6264 27.1485C26.5665 27.0344 26.4766 26.9389 26.3664 26.8722C26.2562 26.8055 26.1298 26.7703 26.001 26.7703C25.8721 26.7703 25.7458 26.8055 25.6355 26.8722C25.5253 26.9389 25.4354 27.0344 25.3756 27.1485C25.3158 27.2626 25.2883 27.3909 25.2962 27.5195C25.304 27.6481 25.3469 27.7721 25.4202 27.878C25.4387 27.901 25.4522 27.9276 25.4598 27.9561C25.4673 27.9847 25.4687 28.0145 25.4639 28.0436C25.4125 28.2998 25.2671 29.0321 25.1645 29.5405C25.152 29.6039 25.1537 29.6693 25.1695 29.732C25.1853 29.7946 25.2148 29.853 25.2559 29.9029C25.297 29.9528 25.3486 29.993 25.407 30.0206C25.4654 30.0482 25.5293 30.0625 25.5939 30.0625H26.4076C26.4724 30.0625 26.5363 30.0481 26.5948 30.0205C26.6534 29.9928 26.705 29.9525 26.7461 29.9024C26.7871 29.8524 26.8166 29.7938 26.8323 29.731C26.848 29.6682 26.8495 29.6027 26.8368 29.5392L26.538 28.0451Z" fill="white"/>
</g>
<defs>
<linearGradient id="paint0_linear_399_3" x1="51" y1="41" x2="0" y2="0" gradientUnits="userSpaceOnUse">
<stop offset="0.384602" stop-color="#131F38"/>
<stop offset="1" stop-color="#131F38"/>
</linearGradient>
<clipPath id="clip0_399_3">
<rect width="28" height="28" fill="white" transform="translate(12 13)"/>
</clipPath>
</defs>
</svg>
