<svg width="22" height="20" viewBox="0 0 22 20" fill="none" xmlns="http://www.w3.org/2000/svg">
<path opacity="0.8" d="M11.8879 7.79066L11.8843 7.8H6.44862C5.65959 7.8 4.92512 8.02939 4.31247 8.42244H2.57812C1.86734 8.42244 1.28906 7.86398 1.28906 7.17755C1.28906 6.49111 1.86734 5.93265 2.57812 5.93265H4.51172C4.86767 5.93265 5.15625 5.65396 5.15625 5.3102C5.15625 4.96644 4.86767 4.68775 4.51172 4.68775H2.57812C1.15655 4.68775 0 5.80467 0 7.17755C0 8.55042 1.15655 9.66734 2.57812 9.66734H3.09869C2.76783 10.2178 2.57812 10.8568 2.57812 11.5379V19.3361C2.57812 19.6798 2.8667 19.9585 3.22266 19.9585H5.80078C6.15673 19.9585 6.44531 19.6798 6.44531 19.3361V14.0829L12.332 14.5935V19.3776C12.332 19.7213 12.6206 20 12.9766 20H15.5547C15.9106 20 16.1992 19.7213 16.1992 19.3776V13.4637L16.9934 9.62871L11.8879 7.79066ZM21.3555 4.0653H19.4106C19.3059 3.11515 18.4732 2.36394 17.4475 2.36394H16.366L15.9714 0.496592C15.8422 -0.114197 14.9612 -0.180674 14.7358 0.403888L12.3377 6.62398L17.2495 8.39228L17.3721 7.8H18.7773C20.5543 7.8 22 6.40384 22 4.68775C22 4.34399 21.7114 4.0653 21.3555 4.0653Z" fill="#243D4D"/>
</svg>
