<svg width="31" height="31" viewBox="0 0 31 31" fill="none" xmlns="http://www.w3.org/2000/svg">
<path d="M0.230469 4.88338C0.230469 2.16247 2.45581 -0.0387158 5.18575 0.000579086C7.83013 0.0386025 9.98033 2.20727 9.99704 4.85184C10.0064 6.33287 9.35628 7.66206 8.32322 8.56366C8.21418 8.65878 8.22992 8.83243 8.35447 8.90612L9.2746 9.45055C9.42336 9.53859 9.36094 9.76661 9.18808 9.76661L5.02136 9.76558C2.36705 9.71623 0.230469 7.54944 0.230469 4.88338Z" fill="#7ACAA6"/>
<path d="M9.27598 9.45058L8.35579 8.90614C8.23191 8.83288 8.21471 8.65947 8.32315 8.5649C9.36801 7.65373 10.0216 6.30517 9.99788 4.80445C9.95689 2.20863 7.85591 0.0777992 5.26081 0.00217621C4.90098 -0.00852854 4.54105 0.0202825 4.1875 0.0880922C6.43058 0.518096 8.14006 2.49525 8.15495 4.8518C8.16216 5.99305 7.77775 7.04414 7.12832 7.8789C6.73616 8.38295 6.86361 9.11388 7.41326 9.43913L7.43251 9.45052C7.57964 9.53758 7.51994 9.76124 7.35144 9.76609L9.1894 9.76651C9.36226 9.76663 9.42474 9.53855 9.27598 9.45058Z" fill="#57BE92"/>
<path d="M24.0251 17.7254H12.9471C10.1802 17.7254 8.66602 14.5009 10.4332 12.3719L10.5315 12.2534C11.31 11.3155 11.7361 10.1349 11.7361 8.91598V6.77971C11.7362 3.03537 14.7715 3.05176e-05 18.5158 3.05176e-05C22.2602 3.05176e-05 25.2955 3.03537 25.2955 6.77971V8.98809C25.2955 10.2198 25.7306 11.4119 26.524 12.3541C28.3132 14.4788 26.8028 17.7254 24.0251 17.7254Z" fill="#C59191"/>
<path d="M29.8475 23.2155V30.5393H7.12305V23.2706C7.12305 21.6249 8.10936 20.1397 9.62545 19.5016L13.294 17.9068L14.5291 17.3697C15.4664 16.9622 16.0725 16.0377 16.0725 15.0156V14.5416H20.8975V14.9914C20.8975 16.0177 21.5096 16.9459 22.4535 17.3503L27.4153 19.4773C28.8939 20.1325 29.8475 21.5977 29.8475 23.2155Z" fill="white"/>
<path d="M13.2943 19.6529C15.0264 20.1706 16.828 20.4181 18.6355 20.3868C20.3476 20.3566 22.0462 20.0766 23.6773 19.5556L24.2755 18.1311L22.4539 17.3503C21.9922 17.1524 21.5988 16.8234 21.3223 16.4041C21.0458 15.9848 20.8984 15.4935 20.8984 14.9912V14.5417H16.0734V15.0156C16.0734 15.5157 15.9273 16.0048 15.6531 16.423C15.379 16.8412 14.9886 17.1701 14.5301 17.3695L13.0547 18.011L13.2943 19.6529Z" fill="#FFCEBF"/>
<path d="M27.4151 19.4771L23.6774 17.8751L23.6767 17.8751V30.5392H29.8476V23.2156C29.8476 21.598 28.894 20.1324 27.4151 19.4771ZM13.294 17.9068V30.5393H7.12305V23.2706C7.12305 21.625 8.10936 20.1398 9.62545 19.5016L13.294 17.9068Z" fill="#8795DE"/>
<path d="M20.1574 17.19C20.6951 17.1906 21.2274 17.0843 21.7236 16.8774C21.4631 16.6371 21.2552 16.3454 21.113 16.0208C20.9708 15.6962 20.8974 15.3456 20.8974 14.9912V14.5417H16.0724V15.0156C16.0724 15.3774 15.9958 15.735 15.8477 16.065C16.5783 16.7615 17.5667 17.1899 18.6558 17.1899L20.1574 17.19Z" fill="#FFB09E"/>
<path d="M23.3069 7.28339V11.2749C23.3069 13.5237 21.484 15.3465 19.2353 15.3465H17.7337C15.485 15.3465 13.6621 13.5236 13.6621 11.2749V7.28339C13.6621 5.82051 14.848 4.63458 16.3109 4.63458H20.6582C22.1211 4.63464 23.3069 5.82051 23.3069 7.28339Z" fill="#FFCEBF"/>
<path d="M23.3073 9.36017C23.3055 9.36568 23.3033 9.37101 23.3016 9.37664C23.1544 9.88493 22.7682 10.8451 21.8346 11.5649C21.4 11.9002 20.9042 12.1424 20.361 12.2849C20.3021 12.2999 20.2467 12.3264 20.198 12.3629C20.1494 12.3994 20.1084 12.4451 20.0775 12.4975C20.0466 12.5499 20.0264 12.6079 20.0181 12.6682C20.0097 12.7284 20.0133 12.7897 20.0288 12.8486C20.0442 12.9074 20.0711 12.9626 20.108 13.011C20.1449 13.0593 20.191 13.0999 20.2436 13.1304C20.2962 13.1609 20.3544 13.1807 20.4147 13.1886C20.475 13.1965 20.5363 13.1923 20.595 13.1764C21.2581 13.0024 21.8645 12.7058 22.3975 12.2949C22.7384 12.0316 23.0434 11.7248 23.3047 11.3823C23.3056 11.3466 23.3074 11.311 23.3074 11.2751V9.36017H23.3073Z" fill="#7A6D79"/>
<path d="M19.8548 13.5589H18.7749C18.2833 13.5589 17.8848 13.1603 17.8848 12.6688C17.8848 12.1772 18.2833 11.7787 18.7749 11.7787H19.8548C20.3464 11.7787 20.7449 12.1772 20.7449 12.6688C20.7449 13.1604 20.3464 13.5589 19.8548 13.5589Z" fill="#685E68"/>
<path d="M19.4464 3.57819C19.5498 2.27401 20.7984 1.40849 21.9934 0.960205C23.9702 2.14468 25.2936 4.30748 25.2936 6.77967V7.24576C25.1857 7.26864 25.0771 7.28834 24.9681 7.30485C24.3097 7.40318 23.7491 7.36062 23.3661 7.30485C20.898 6.97608 19.3215 5.15332 19.4464 3.57819Z" fill="#B98080"/>
<path d="M18.5159 3.05176e-05C20.0471 3.05176e-05 21.4595 0.507777 22.5944 1.36385C22.0283 2.34901 20.7282 4.2968 18.2904 5.73878C16.4807 6.80931 14.7742 7.16902 13.7234 7.30483H11.7363V6.77965C11.7363 3.03537 14.7716 3.05176e-05 18.5159 3.05176e-05Z" fill="#C59191"/>
<path d="M26.0949 30.5392H11.3424L10.5287 22.8633C10.471 22.3189 10.8978 21.8445 11.4452 21.8445H25.992C26.5395 21.8445 26.9663 22.3189 26.9086 22.8633L26.0949 30.5392Z" fill="#EFEDEF"/>
<path d="M25.9918 21.8445H24.1484C24.6959 21.8445 25.1227 22.3189 25.065 22.8633L24.2513 30.5392H26.0947L26.9084 22.8633C26.9662 22.3189 26.5394 21.8445 25.9918 21.8445Z" fill="#E5E1E5"/>
<path d="M30.5459 31H0.454102C0.203256 31 0 30.7967 0 30.5459C0 30.2951 0.203256 30.0918 0.454102 30.0918H30.5459C30.7967 30.0918 31 30.2951 31 30.5459C31 30.7967 30.7967 31 30.5459 31Z" fill="#C9BFC8"/>
<path d="M18.7181 27.4822C19.4308 27.4822 20.0085 26.9045 20.0085 26.1918C20.0085 25.4792 19.4308 24.9015 18.7181 24.9015C18.0055 24.9015 17.4277 25.4792 17.4277 26.1918C17.4277 26.9045 18.0055 27.4822 18.7181 27.4822Z" fill="#C9BFC8"/>
<path d="M3.26942 5.34416C3.52392 5.34416 3.73024 5.13784 3.73024 4.88334C3.73024 4.62883 3.52392 4.42252 3.26942 4.42252C3.01491 4.42252 2.80859 4.62883 2.80859 4.88334C2.80859 5.13784 3.01491 5.34416 3.26942 5.34416Z" fill="white"/>
<path d="M5.11317 5.34416C5.36767 5.34416 5.57399 5.13784 5.57399 4.88334C5.57399 4.62883 5.36767 4.42252 5.11317 4.42252C4.85866 4.42252 4.65234 4.62883 4.65234 4.88334C4.65234 5.13784 4.85866 5.34416 5.11317 5.34416Z" fill="white"/>
<path d="M6.95692 5.34416C7.21142 5.34416 7.41774 5.13784 7.41774 4.88334C7.41774 4.62883 7.21142 4.42252 6.95692 4.42252C6.70241 4.42252 6.49609 4.62883 6.49609 4.88334C6.49609 5.13784 6.70241 5.34416 6.95692 5.34416Z" fill="white"/>
</svg>
