<svg width="105" height="105" viewBox="0 0 105 105" fill="none" xmlns="http://www.w3.org/2000/svg">
<circle cx="52.5" cy="52.5" r="52.5" fill="#E4EDFD"/>
<path d="M66.5735 37.044C62.508 33.1613 57.1698 31.1666 51.5341 31.4266C40.7309 31.9263 32.0209 41.1441 32.1195 51.9737C32.1459 54.9509 32.8262 57.8859 34.1123 60.5711C35.3984 63.2562 37.2588 65.626 39.562 67.5128C40.9848 68.6828 41.8014 70.3697 41.8014 72.142C41.8014 76.5264 45.3693 80.0933 49.7537 80.0933H55.2452C59.6297 80.0933 63.1976 76.5264 63.1976 72.1379C63.1976 70.3596 63.9918 68.6909 65.3771 67.5605C70.1455 63.6706 72.8795 57.9212 72.8795 51.7858C72.8795 46.1633 70.6401 40.9288 66.5735 37.044ZM55.2463 78.062H49.7548C48.1851 78.0604 46.6801 77.4362 45.5701 76.3264C44.46 75.2165 43.8356 73.7117 43.8337 72.142C43.8337 71.171 43.6448 70.2245 43.3025 69.3328H61.6894C61.3466 70.2298 61.1701 71.1817 61.1684 72.142C61.1665 73.7117 60.542 75.2165 59.432 76.3264C58.3219 77.4362 56.817 78.0604 55.2473 78.062H55.2463ZM64.0944 65.9873C63.6199 66.375 63.1916 66.816 62.8177 67.3015H42.165C41.7803 66.8008 41.3401 66.3453 40.8528 65.9436C38.779 64.2457 37.1037 62.1128 35.9456 59.6957C34.7874 57.2786 34.1747 54.6365 34.1507 51.9564C34.0623 42.2044 41.903 33.9057 51.6276 33.4558C54.1106 33.3287 56.5933 33.7119 58.9225 34.5816C61.2517 35.4513 63.3779 36.7892 65.1699 38.5126C68.8323 42.0094 70.8493 46.7229 70.8493 51.7848C70.8493 57.3078 68.3874 62.4834 64.0934 65.9863L64.0944 65.9873ZM51.4844 21.9224V27.4849C51.4844 27.7543 51.5914 28.0126 51.7818 28.2031C51.9723 28.3936 52.2306 28.5006 52.5 28.5006C52.7694 28.5006 53.0277 28.3936 53.2182 28.2031C53.4086 28.0126 53.5156 27.7543 53.5156 27.4849V21.9224C53.5156 21.653 53.4086 21.3947 53.2182 21.2042C53.0277 21.0137 52.7694 20.9067 52.5 20.9067C52.2306 20.9067 51.9723 21.0137 51.7818 21.2042C51.5914 21.3947 51.4844 21.653 51.4844 21.9224ZM72.6084 29.83L68.6748 33.7635C68.5805 33.8578 68.5057 33.9698 68.4547 34.093C68.4037 34.2162 68.3774 34.3482 68.3774 34.4816C68.3774 34.6149 68.4037 34.747 68.4547 34.8702C68.5057 34.9934 68.5805 35.1053 68.6748 35.1996C68.7691 35.2939 68.8811 35.3687 69.0043 35.4198C69.1275 35.4708 69.2595 35.4971 69.3929 35.4971C69.5262 35.4971 69.6583 35.4708 69.7815 35.4198C69.9047 35.3687 70.0166 35.2939 70.1109 35.1996L74.0445 31.2661C74.1387 31.1718 74.2135 31.0599 74.2646 30.9367C74.3156 30.8135 74.3419 30.6814 74.3419 30.5481C74.3419 30.4147 74.3156 30.2827 74.2646 30.1595C74.2135 30.0363 74.1387 29.9243 74.0445 29.83C73.9502 29.7357 73.8382 29.6609 73.715 29.6099C73.5918 29.5589 73.4598 29.5326 73.3264 29.5326C73.1931 29.5326 73.061 29.5589 72.9378 29.6099C72.8146 29.6609 72.7027 29.7357 72.6084 29.83ZM81.9531 50.3599H76.3895C76.2562 50.3599 76.1241 50.3861 76.0009 50.4372C75.8776 50.4882 75.7657 50.563 75.6714 50.6573C75.5771 50.7516 75.5023 50.8636 75.4512 50.9868C75.4002 51.11 75.3739 51.2421 75.3739 51.3755C75.3739 51.5089 75.4002 51.6409 75.4512 51.7642C75.5023 51.8874 75.5771 51.9993 75.6714 52.0936C75.7657 52.188 75.8776 52.2628 76.0009 52.3138C76.1241 52.3648 76.2562 52.3911 76.3895 52.3911H81.9531C82.2225 52.3911 82.4808 52.2841 82.6713 52.0936C82.8617 51.9032 82.9688 51.6448 82.9688 51.3755C82.9688 51.1061 82.8617 50.8478 82.6713 50.6573C82.4808 50.4669 82.2225 50.3599 81.9531 50.3599ZM70.1109 67.5503C70.0166 67.456 69.9047 67.3812 69.7815 67.3302C69.6583 67.2792 69.5262 67.2529 69.3929 67.2529C69.2595 67.2529 69.1275 67.2792 69.0043 67.3302C68.8811 67.3812 68.7691 67.456 68.6748 67.5503C68.5805 67.6446 68.5057 67.7566 68.4547 67.8798C68.4037 68.003 68.3774 68.135 68.3774 68.2684C68.3774 68.4017 68.4037 68.5338 68.4547 68.657C68.5057 68.7802 68.5805 68.8921 68.6748 68.9864L72.6084 72.9199C72.7025 73.0146 72.8143 73.0897 72.9376 73.1409C73.0608 73.1922 73.1929 73.2186 73.3264 73.2186C73.4599 73.2186 73.592 73.1922 73.7152 73.1409C73.8385 73.0897 73.9504 73.0146 74.0445 72.9199C74.1389 72.8257 74.2137 72.7138 74.2648 72.5906C74.3159 72.4674 74.3422 72.3353 74.3422 72.2019C74.3422 72.0685 74.3159 71.9364 74.2648 71.8132C74.2137 71.69 74.1389 71.5781 74.0445 71.4838L70.1109 67.5503ZM34.8891 67.5503L30.9555 71.4838C30.7651 71.6743 30.6581 71.9326 30.6581 72.2019C30.6581 72.4712 30.7651 72.7295 30.9555 72.9199C31.146 73.1104 31.4043 73.2174 31.6736 73.2174C31.9429 73.2174 32.2012 73.1104 32.3916 72.9199L36.3252 68.9864C36.4195 68.8921 36.4943 68.7802 36.5453 68.657C36.5963 68.5338 36.6226 68.4017 36.6226 68.2684C36.6226 68.135 36.5963 68.003 36.5453 67.8798C36.4943 67.7566 36.4195 67.6446 36.3252 67.5503C36.2309 67.456 36.1189 67.3812 35.9957 67.3302C35.8725 67.2792 35.7405 67.2529 35.6071 67.2529C35.4738 67.2529 35.3417 67.2792 35.2185 67.3302C35.0953 67.3812 34.9834 67.456 34.8891 67.5503ZM28.6105 50.3599H23.0469C22.9135 50.3599 22.7814 50.3861 22.6582 50.4372C22.535 50.4882 22.423 50.563 22.3287 50.6573C22.2344 50.7516 22.1596 50.8636 22.1086 50.9868C22.0575 51.11 22.0312 51.2421 22.0312 51.3755C22.0312 51.5089 22.0575 51.6409 22.1086 51.7642C22.1596 51.8874 22.2344 51.9993 22.3287 52.0936C22.423 52.188 22.535 52.2628 22.6582 52.3138C22.7814 52.3648 22.9135 52.3911 23.0469 52.3911H28.6105C28.8798 52.3911 29.1382 52.2841 29.3286 52.0936C29.5191 51.9032 29.6261 51.6448 29.6261 51.3755C29.6261 51.1061 29.5191 50.8478 29.3286 50.6573C29.1382 50.4669 28.8798 50.3599 28.6105 50.3599ZM30.9555 29.83C30.8611 29.9243 30.7863 30.0362 30.7352 30.1594C30.6841 30.2826 30.6578 30.4147 30.6578 30.5481C30.6578 30.6815 30.6841 30.8135 30.7352 30.9367C30.7863 31.0599 30.8611 31.1719 30.9555 31.2661L34.8891 35.1996C34.9832 35.2943 35.095 35.3694 35.2183 35.4206C35.3415 35.4719 35.4736 35.4983 35.6071 35.4983C35.7406 35.4983 35.8727 35.4719 35.9959 35.4206C36.1192 35.3694 36.2311 35.2943 36.3252 35.1996C36.4196 35.1054 36.4944 34.9935 36.5455 34.8703C36.5966 34.747 36.6229 34.615 36.6229 34.4816C36.6229 34.3482 36.5966 34.2161 36.5455 34.0929C36.4944 33.9697 36.4196 33.8578 36.3252 33.7635L32.3916 29.83C32.2974 29.7356 32.1855 29.6607 32.0623 29.6096C31.9391 29.5585 31.807 29.5322 31.6736 29.5322C31.5402 29.5322 31.4081 29.5585 31.2849 29.6096C31.1617 29.6607 31.0498 29.7356 30.9555 29.83Z" fill="#4C545F"/>
<path d="M56.4357 50.2128C57.1742 49.6238 57.7706 48.8761 58.1806 48.0251C58.5906 47.1741 58.8037 46.2418 58.8041 45.2971C58.8041 41.8207 55.9766 38.9932 52.5002 38.9932C49.0237 38.9932 46.1962 41.8207 46.1962 45.2971C46.1962 47.2837 47.1224 49.057 48.5646 50.2128C45.4375 51.4975 43.2285 54.5729 43.2285 58.158V60.9916C43.2285 61.261 43.3355 61.5193 43.526 61.7098C43.7165 61.9002 43.9748 62.0072 44.2441 62.0072H60.7572C61.0265 62.0072 61.2849 61.9002 61.4753 61.7098C61.6658 61.5193 61.7728 61.261 61.7728 60.9916V58.158C61.7728 54.5729 59.5628 51.4975 56.4357 50.2128ZM52.5002 41.0244C54.8554 41.0244 56.7729 42.9419 56.7729 45.2971C56.7729 47.6524 54.8564 49.5689 52.5002 49.5689C50.1439 49.5689 48.2274 47.6524 48.2274 45.2971C48.2274 42.9419 50.1439 41.0244 52.5002 41.0244ZM59.7405 59.976H45.2588V58.158C45.2606 56.4193 45.9522 54.7524 47.1816 53.523C48.411 52.2935 50.078 51.602 51.8166 51.6001H53.1837C54.9224 51.602 56.5893 52.2935 57.8187 53.523C59.0482 54.7524 59.7397 56.4193 59.7416 58.158L59.7405 59.976Z" fill="#4C545F"/>
</svg>
