<svg width="22" height="18" viewBox="0 0 22 18" fill="none" xmlns="http://www.w3.org/2000/svg">
<path fill-rule="evenodd" clip-rule="evenodd" d="M7.29167 2.08333C6.46286 2.08333 5.66801 2.41257 5.08196 2.99863C4.49591 3.58468 4.16667 4.37953 4.16667 5.20833C4.16667 6.03714 4.49591 6.83199 5.08196 7.41804C5.66801 8.0041 6.46286 8.33333 7.29167 8.33333C8.12047 8.33333 8.91532 8.0041 9.50138 7.41804C10.0874 6.83199 10.4167 6.03714 10.4167 5.20833C10.4167 4.37953 10.0874 3.58468 9.50138 2.99863C8.91532 2.41257 8.12047 2.08333 7.29167 2.08333ZM2.08333 5.20833C2.08333 3.827 2.63207 2.50224 3.60882 1.52549C4.58557 0.548734 5.91033 0 7.29167 0C8.673 0 9.99776 0.548734 10.9745 1.52549C11.9513 2.50224 12.5 3.827 12.5 5.20833C12.5 6.58967 11.9513 7.91443 10.9745 8.89118C9.99776 9.86794 8.673 10.4167 7.29167 10.4167C5.91033 10.4167 4.58557 9.86794 3.60882 8.89118C2.63207 7.91443 2.08333 6.58967 2.08333 5.20833ZM17.7083 6.25C17.9846 6.25 18.2496 6.35975 18.4449 6.5551C18.6403 6.75045 18.75 7.0154 18.75 7.29167V9.375H20.8333C21.1096 9.375 21.3746 9.48475 21.5699 9.6801C21.7653 9.87545 21.875 10.1404 21.875 10.4167C21.875 10.6929 21.7653 10.9579 21.5699 11.1532C21.3746 11.3486 21.1096 11.4583 20.8333 11.4583H18.75V13.5417C18.75 13.8179 18.6403 14.0829 18.4449 14.2782C18.2496 14.4736 17.9846 14.5833 17.7083 14.5833C17.4321 14.5833 17.1671 14.4736 16.9718 14.2782C16.7764 14.0829 16.6667 13.8179 16.6667 13.5417V11.4583H14.5833C14.3071 11.4583 14.0421 11.3486 13.8468 11.1532C13.6514 10.9579 13.5417 10.6929 13.5417 10.4167C13.5417 10.1404 13.6514 9.87545 13.8468 9.6801C14.0421 9.48475 14.3071 9.375 14.5833 9.375H16.6667V7.29167C16.6667 7.0154 16.7764 6.75045 16.9718 6.5551C17.1671 6.35975 17.4321 6.25 17.7083 6.25ZM2.29479 12.8542C3.61875 11.9708 5.38854 11.4583 7.29167 11.4583C9.19479 11.4583 10.9646 11.9708 12.2885 12.8542C13.6062 13.7323 14.5833 15.0594 14.5833 16.6667C14.5833 16.9429 14.4736 17.2079 14.2782 17.4032C14.0829 17.5986 13.8179 17.7083 13.5417 17.7083C13.2654 17.7083 13.0004 17.5986 12.8051 17.4032C12.6097 17.2079 12.5 16.9429 12.5 16.6667C12.5 15.9729 12.0781 15.2167 11.1333 14.5875C10.1958 13.9625 8.84062 13.5417 7.29167 13.5417C5.74271 13.5417 4.3875 13.9625 3.45 14.5875C2.50521 15.2167 2.08333 15.9729 2.08333 16.6667C2.08333 16.9429 1.97359 17.2079 1.77824 17.4032C1.58289 17.5986 1.31793 17.7083 1.04167 17.7083C0.765399 17.7083 0.500447 17.5986 0.305097 17.4032C0.109747 17.2079 0 16.9429 0 16.6667C0 15.0594 0.977083 13.7323 2.29479 12.8542Z" fill="#4C4C4C"/>
</svg>
