<svg width="105" height="105" viewBox="0 0 105 105" fill="none" xmlns="http://www.w3.org/2000/svg">
<circle cx="52.5" cy="52.5" r="52.5" fill="#E4EDFD"/>
<path d="M51.0005 80.4521C50.8465 80.4521 50.6924 80.4183 50.5565 80.3424C50.2937 80.2074 44.0315 76.883 37.6787 71.1371C29.1871 63.4674 24.7012 55.1565 24.7012 47.0902C24.7012 39.024 31.4618 31.5483 39.183 31.5483C43.9137 31.5483 48.318 33.894 51.0005 37.7499C53.6921 33.894 58.0874 31.5483 62.818 31.5483C70.5302 31.5483 77.2999 38.813 77.2999 47.0902C77.2999 55.3674 72.814 63.4674 64.3315 71.1371C57.9696 76.883 51.7165 80.2074 51.4537 80.3424C51.3177 80.4183 51.1637 80.4521 51.0096 80.4521H51.0005ZM39.183 33.2358C32.4315 33.2358 26.5137 39.7074 26.5137 47.0902C26.5137 64.1424 47.6384 76.7312 51.0005 78.6296C54.3627 76.7396 75.4874 64.1424 75.4874 47.0902C75.4874 39.7074 69.5696 33.2358 62.818 33.2358C58.2596 33.2358 54.0455 35.7587 51.8071 39.8171C51.499 40.3824 50.5021 40.3824 50.194 39.8171C47.9555 35.7587 43.7324 33.2358 39.174 33.2358H39.183ZM31.7427 46.7527C31.7427 42.2471 35.3315 38.2983 39.4277 38.2983C39.9262 38.2983 40.334 37.9187 40.334 37.4546C40.334 36.9905 39.9262 36.6108 39.4277 36.6108C34.2802 36.6108 29.9302 41.2599 29.9302 46.7527C29.9302 47.2168 30.338 47.5965 30.8365 47.5965C31.3349 47.5965 31.7427 47.2168 31.7427 46.7527ZM56.2659 67.5596C55.6768 67.5596 55.0877 67.4583 54.5168 67.239C53.4021 66.8002 52.2421 66.564 51.0368 66.5471H50.9099C49.7409 66.564 48.5809 66.8002 47.4843 67.239C46.7842 67.5053 46.0245 67.6072 45.2721 67.5356C44.5198 67.4641 43.7979 67.2212 43.1701 66.8285C42.5424 66.4358 42.0281 65.9054 41.6725 65.2839C41.317 64.6624 41.1312 63.969 41.1315 63.2649C41.1315 62.1343 41.5937 61.0712 42.4455 60.2696L45.853 56.228C46.1793 55.8483 46.5418 55.5024 46.9496 55.1987C48.3271 54.1946 50.0399 53.7474 51.7709 53.9415C53.5018 54.1355 55.0515 54.9455 56.1299 56.228L59.5465 60.2696C60.3984 61.0796 60.8605 62.1427 60.8605 63.2733C60.8605 64.4208 60.3802 65.5008 59.5102 66.3108C59.0843 66.7105 58.5774 67.0274 58.0189 67.2432C57.4604 67.459 56.8615 67.5694 56.2568 67.568L56.2659 67.5596ZM51.0549 64.8596C52.5049 64.8849 53.9005 65.1633 55.2146 65.6865C56.2477 66.083 57.4349 65.8552 58.2324 65.1127C58.7671 64.6233 59.0571 63.9652 59.0571 63.2649C59.0571 62.5646 58.7671 61.9149 58.2415 61.4171C58.2143 61.3918 58.1871 61.3665 58.169 61.3412L54.7162 57.2658C53.9368 56.3377 52.813 55.7555 51.5624 55.6121C50.3118 55.4687 49.0702 55.7977 48.0824 56.5233C47.7834 56.7427 47.5205 56.9874 47.2849 57.2658L43.8502 61.3412C43.8502 61.3412 43.8049 61.3918 43.7777 61.4171C43.2521 61.9065 42.953 62.5646 42.953 63.2565C42.953 63.9568 43.243 64.6065 43.7687 65.1043C44.5662 65.8468 45.7534 66.0746 46.7955 65.678C48.0915 65.1633 49.478 64.8849 50.9009 64.8596H51.064H51.0549ZM41.0046 57.3924C40.4518 57.3924 39.8899 57.2405 39.3462 56.9452C38.5305 56.498 37.8418 55.7471 37.4159 54.8443C36.9809 53.9415 36.8449 52.9712 37.0262 52.1021C37.2255 51.1487 37.8146 50.3977 38.6484 50.0518C39.4821 49.7058 40.4699 49.7902 41.3671 50.288C42.1827 50.7352 42.8624 51.4862 43.2974 52.389C43.7324 53.2918 43.8684 54.2705 43.6871 55.1312C43.4877 56.0846 42.8987 56.8355 42.0649 57.1815C41.7296 57.3249 41.3671 57.3924 40.9955 57.3924H41.0046ZM39.7177 51.5283C39.609 51.5283 39.4912 51.5452 39.3915 51.5958C39.0018 51.7562 38.8568 52.1865 38.8115 52.4312C38.7027 52.9458 38.8024 53.5787 39.0834 54.1608C39.3643 54.743 39.7993 55.2324 40.2887 55.494C40.5152 55.6205 40.9502 55.8062 41.349 55.6458C41.7387 55.4855 41.8837 55.0552 41.929 54.8105C42.0377 54.2958 41.938 53.663 41.6571 53.0808C41.3762 52.4987 40.9412 52.0093 40.4518 51.7477C40.2887 51.6549 40.0168 51.5368 39.7268 51.5368L39.7177 51.5283ZM60.9874 57.384C60.6159 57.384 60.2534 57.3165 59.918 57.173C59.0843 56.8271 58.4952 56.0762 58.2959 55.1227C58.1146 54.2621 58.2505 53.2833 58.6855 52.3805C59.1205 51.4777 59.8093 50.7352 60.6159 50.2796C61.513 49.7818 62.5099 49.6974 63.3346 50.0433C64.1684 50.3893 64.7574 51.1402 64.9568 52.0937C65.1381 52.9543 65.0021 53.933 64.5671 54.8358C64.1321 55.7387 63.4434 56.4812 62.6368 56.9368C62.1021 57.2321 61.5312 57.384 60.9784 57.384H60.9874ZM62.2743 51.5199C61.9843 51.5199 61.7124 51.6465 61.5493 51.7308C61.0599 52.0008 60.6249 52.4902 60.344 53.064C60.063 53.6462 59.9634 54.2705 60.0721 54.7937C60.1265 55.0383 60.2624 55.4687 60.6521 55.629C61.0418 55.7893 61.4859 55.6037 61.7124 55.4771C62.2018 55.2071 62.6368 54.7177 62.9177 54.144C63.1987 53.5618 63.2984 52.929 63.1896 52.4143C63.1352 52.1696 62.9993 51.7393 62.6096 51.579C62.5033 51.5384 62.3892 51.5183 62.2743 51.5199ZM46.9134 52.4143C46.2246 52.4143 45.5087 52.1865 44.8743 51.7393C44.0405 51.1655 43.379 50.2712 43.0074 49.2418C42.6359 48.204 42.5996 47.124 42.9077 46.1958C43.243 45.1833 43.968 44.4324 44.9015 44.1455C46.7684 43.5718 48.8709 44.9049 49.6774 47.1915C50.049 48.2293 50.0852 49.3093 49.7771 50.2374C49.4418 51.2499 48.7168 52.0008 47.7834 52.2877C47.5024 52.3721 47.2124 52.4143 46.9134 52.4143ZM45.7715 45.7065C45.6627 45.7065 45.563 45.7233 45.4634 45.7487C44.9559 45.9005 44.7293 46.4068 44.6387 46.6852C44.4484 47.2758 44.4755 48.0099 44.7293 48.7102C44.974 49.4105 45.4271 50.018 45.9527 50.3808C46.2065 50.558 46.714 50.828 47.2215 50.6762C47.729 50.5243 47.9555 50.018 48.0462 49.7396C48.2365 49.149 48.2093 48.4149 47.9555 47.7146C47.5387 46.5502 46.5871 45.698 45.7715 45.698V45.7065ZM55.0696 52.4143C54.7705 52.4143 54.4805 52.3721 54.1996 52.2877C53.2662 52.0008 52.5412 51.2499 52.2059 50.2374C51.9068 49.3093 51.943 48.2293 52.3055 47.1915C52.6771 46.1537 53.3387 45.2677 54.1724 44.694C55.0877 44.0612 56.148 43.8671 57.0815 44.154C58.0149 44.4408 58.7399 45.1918 59.0752 46.2043C59.3743 47.1324 59.338 48.2124 58.9755 49.2502C58.604 50.288 57.9424 51.174 57.1087 51.7477C56.4652 52.1865 55.7584 52.4143 55.0696 52.4143ZM56.2024 45.7065C55.8127 45.7065 55.4502 45.909 55.2509 46.044C54.7252 46.4068 54.2721 47.0227 54.0274 47.7146C53.7827 48.4149 53.7465 49.149 53.9368 49.7396C54.0274 50.0265 54.263 50.5243 54.7615 50.6762C55.2599 50.828 55.7674 50.558 56.0302 50.3808C56.5559 50.018 57.009 49.4021 57.2537 48.7102C57.4984 48.0099 57.5346 47.2758 57.3443 46.6852C57.2537 46.3983 57.018 45.9005 56.5196 45.7487C56.4109 45.7149 56.3112 45.7065 56.2115 45.7065H56.2024Z" fill="#4C545F"/>
</svg>
